<?xml version="1.0" encoding="UTF-8" standalone="no"?>
<!DOCTYPE svg PUBLIC "-//W3C//DTD SVG 1.1//EN" "http://www.w3.org/Graphics/SVG/1.1/DTD/svg11.dtd">
<svg width="473" height="121" fill="none" xmlns="http://www.w3.org/2000/svg" viewBox="0 0 473 121" color="#fff"><path preserveAspectRatio="xMinYMin none" fill="#fff" d="M1.03 71.21a.91.91 0 0 1-.19-.78l4.6-21.67a1.3 1.3 0 0 1 .5-.76 1.27 1.27 0 0 1 .9-.34h3.71a.77.77 0 0 1 .69.32.87.87 0 0 1 .19.55.8.8 0 0 1-.05.23l-.41 1.88a10.76 10.76 0 0 1 8-3.44 8.09 8.09 0 0 1 5.81 1.9 7.06 7.06 0 0 1 2 5.35 14.813 14.813 0 0 1-.37 3.08l-2.77 12.9a1.24 1.24 0 0 1-.48.8 1.38 1.38 0 0 1-.85.3h-4a.85.85 0 0 1-.72-.32.942.942 0 0 1-.16-.78l2.63-12.63c.175-.783.282-1.579.32-2.38a3.2 3.2 0 0 0-.9-2.51 4.33 4.33 0 0 0-2.91-.8 6.67 6.67 0 0 0-4.43 1.52 7.29 7.29 0 0 0-2.41 4.17L7.06 70.43a1.31 1.31 0 0 1-1.28 1.1H1.74a.82.82 0 0 1-.71-.32ZM32 69.79a8.23 8.23 0 0 1-2.37-6.34c-.016-.921.054-1.842.21-2.75a18.68 18.68 0 0 1 .51-2.3 15.07 15.07 0 0 1 5-8.22 13.29 13.29 0 0 1 8.7-3c3 0 5.273.773 6.82 2.32a8.598 8.598 0 0 1 2.32 6.36 19.085 19.085 0 0 1-.35 3.46l-.23 1a1.3 1.3 0 0 1-.48.78 1.35 1.35 0 0 1-.9.33H35.97l-.09.36a8.415 8.415 0 0 0-.14 1.52 5 5 0 0 0 1 3.21 3.49 3.49 0 0 0 2.91 1.24 6.59 6.59 0 0 0 4.78-2.11 4.3 4.3 0 0 1 .81-.65 1.7 1.7 0 0 1 .78-.14h4a.78.78 0 0 1 .64.27.66.66 0 0 1 .19.46.798.798 0 0 1 0 .23 6.26 6.26 0 0 1-2 2.57 14.589 14.589 0 0 1-4.27 2.55A15.22 15.22 0 0 1 38.77 72c-2.94 0-5.197-.737-6.77-2.21Zm14.94-12.26v-.14a8.57 8.57 0 0 0 .18-1.74 4.51 4.51 0 0 0-1-3.13 3.8 3.8 0 0 0-3-1.14A5.659 5.659 0 0 0 39.09 53a8.19 8.19 0 0 0-2.25 4.39v.14h10.1ZM57.37 70.09a7.14 7.14 0 0 1-2-5.4c.007-1.008.114-2.013.32-3l2.76-12.9a1.21 1.21 0 0 1 .48-.8c.24-.194.54-.3.85-.3h4a.87.87 0 0 1 .69.27.89.89 0 0 1 .18.55.86.86 0 0 1 0 .28L62 61.39c-.166.783-.257 1.58-.27 2.38a3.23 3.23 0 0 0 .87 2.5 4.18 4.18 0 0 0 2.89.81 6.55 6.55 0 0 0 4.35-1.52 7.13 7.13 0 0 0 2.37-4.17l2.7-12.63c.054-.32.23-.606.49-.8.24-.194.54-.3.85-.3h4a.84.84 0 0 1 .74.32.87.87 0 0 1 .18.55.798.798 0 0 1 0 .23l-4.66 21.67a1.24 1.24 0 0 1-.48.8 1.38 1.38 0 0 1-.85.3h-3.72a.81.81 0 0 1-.73-.32.82.82 0 0 1-.19-.55.798.798 0 0 1 0-.23l.37-1.88a11.5 11.5 0 0 1-3.38 2.61c-1.426.611-2.97.895-4.52.83a7.86 7.86 0 0 1-5.64-1.9ZM82.16 71.21a.91.91 0 0 1-.16-.78L88.47 40a1.49 1.49 0 0 1 .46-.79 1.25 1.25 0 0 1 .83-.32h3.81a1 1 0 0 1 .78.32.9.9 0 0 1 .19.56c.01.076.01.154 0 .23l-6.52 30.43a1.29 1.29 0 0 1-.49.8c-.242.194-.541.3-.85.3h-3.84a.841.841 0 0 1-.68-.32ZM96.18 69.76a8.61 8.61 0 0 1-2-6c.011-.894.088-1.787.23-2.67l.65-3a17.35 17.35 0 0 1 4.22-7.94 10.271 10.271 0 0 1 7.669-2.94 9.109 9.109 0 0 1 4.18.8 6.728 6.728 0 0 1 2.48 2.27l.32-1.51c.044-.316.209-.603.46-.8.229-.194.52-.3.82-.3h3.63a.939.939 0 0 1 .78.32.867.867 0 0 1 .18.55.74.74 0 0 1 0 .23l-4.64 21.67a1.308 1.308 0 0 1-1.28 1.1h-3.63a.888.888 0 0 1-.76-.32.909.909 0 0 1-.16-.78l.37-1.7c-.955.99-2.062 1.82-3.28 2.46a9.628 9.628 0 0 1-4.21.8c-2.673 0-4.683-.747-6.03-2.24Zm12.439-4.4a8.665 8.665 0 0 0 2.34-4.16c.309-1.162.553-2.34.73-3.53a7.72 7.72 0 0 0 .15-1.47 4.306 4.306 0 0 0-1-3 3.893 3.893 0 0 0-3.09-1.13c-3.07 0-5.22 2-6.48 6.11-.273.92-.458 1.864-.55 2.82-.097.7-.157 1.404-.18 2.11 0 2.667 1.224 4 3.67 4a6.066 6.066 0 0 0 4.41-1.75ZM120.759 71.21a.909.909 0 0 1-.16-.78l4.59-21.67a1.411 1.411 0 0 1 1.33-1.1h3.77a.789.789 0 0 1 .69.32.867.867 0 0 1 .18.55.74.74 0 0 1 0 .23l-.42 1.88a10.807 10.807 0 0 1 8-3.44 8.1 8.1 0 0 1 5.81 1.9 7.065 7.065 0 0 1 2 5.35 15.5 15.5 0 0 1-.37 3.08l-2.76 12.9a1.237 1.237 0 0 1-.48.8c-.241.194-.54.3-.85.3h-4a.84.84 0 0 1-.71-.32.909.909 0 0 1-.16-.78l2.62-12.63c.181-.782.288-1.578.32-2.38a3.186 3.186 0 0 0-.89-2.51 4.359 4.359 0 0 0-2.92-.8 6.692 6.692 0 0 0-4.51 1.52 7.346 7.346 0 0 0-2.41 4.17l-2.59 12.63a1.308 1.308 0 0 1-1.29 1.1h-4a.838.838 0 0 1-.79-.32ZM151.229 69.74a8.653 8.653 0 0 1-2.07-6.1c.015-.864.092-1.727.23-2.58.16-.82.37-1.82.65-3a16.644 16.644 0 0 1 4.2-7.9 10.227 10.227 0 0 1 7.6-3 9.359 9.359 0 0 1 4.15.82 6.168 6.168 0 0 1 2.55 2.21l2.2-10.19c.05-.317.214-.605.46-.81.233-.195.527-.302.83-.3h3.9a1.001 1.001 0 0 1 .78.32c.122.16.186.358.18.56a.74.74 0 0 1 0 .23l-6.48 30.39a1.237 1.237 0 0 1-.48.8c-.241.194-.54.3-.85.3h-3.62a.828.828 0 0 1-.74-.32.873.873 0 0 1-.18-.55.74.74 0 0 1 0-.23l.37-1.7a12.976 12.976 0 0 1-3.37 2.43 9.665 9.665 0 0 1-4.25.83 7.829 7.829 0 0 1-6.06-2.21Zm12.61-4.41a8.183 8.183 0 0 0 2.37-4.13c.333-1.16.594-2.338.78-3.53.087-.442.13-.89.13-1.34a4.465 4.465 0 0 0-1-3 3.992 3.992 0 0 0-3.19-1.19 5.512 5.512 0 0 0-4.18 1.7 10.904 10.904 0 0 0-2.43 4.41 20.66 20.66 0 0 0-.6 2.75c-.095.64-.155 1.284-.18 1.93 0 2.79 1.28 4.18 3.86 4.18a6.185 6.185 0 0 0 4.44-1.78ZM259.349 39h-10.81c-1.5 6.86-3.7 14-6.7 18.86a46.716 46.716 0 0 1-10.21 11.87 38.813 38.813 0 0 1-12.24 6.78 40.996 40.996 0 0 1-12.8 2.14 34.383 34.383 0 0 1-10.83-1.58 23.6 23.6 0 0 1-8.08-4.44 19.125 19.125 0 0 1-5.06-6.84 21.53 21.53 0 0 1-1.78-8.79 25.702 25.702 0 0 1 1.83-9.71 22.628 22.628 0 0 1 5-7 24.457 24.457 0 0 1 7.41-4.81 40.312 40.312 0 0 1 9.76-2.62v-.11a35.605 35.605 0 0 1-3.91-2.7 19.674 19.674 0 0 1-3.21-3.24 14.504 14.504 0 0 1-2.15-3.81 12.904 12.904 0 0 1-.79-4.62 15.457 15.457 0 0 1 1.83-7.48 17.95 17.95 0 0 1 5-5.8 23.94 23.94 0 0 1 7.63-3.74 33.333 33.333 0 0 1 9.6-1.36 34.702 34.702 0 0 1 5.46.42c1.683.247 3.352.58 5 1a39 39 0 0 1 4.28 1.41c1.31.53 2.45 1 3.43 1.52l-2.65 7.37c-1.08-.6-2.22-1.18-3.4-1.74a28.055 28.055 0 0 0-3.77-1.47 34.68 34.68 0 0 0-4.22-1 27.506 27.506 0 0 0-4.75-.39 21.526 21.526 0 0 0-5.46.7 15.25 15.25 0 0 0-4.84 2.18 11.287 11.287 0 0 0-3.41 3.6 9.759 9.759 0 0 0-1.29 5.09 8.521 8.521 0 0 0 1.4 4.7 16.23 16.23 0 0 0 3.52 3.85 22.61 22.61 0 0 0 4.5 2.82 24.819 24.819 0 0 0 4.42 1.63l-2 7.26a48.85 48.85 0 0 0-10.83.38 16.694 16.694 0 0 0-7.77 3.16 18.529 18.529 0 0 0-5.23 5.89 18.094 18.094 0 0 0-1.85 7.94 15.013 15.013 0 0 0 1.21 6 13.319 13.319 0 0 0 3.51 4.81 16.95 16.95 0 0 0 5.57 3.18 22.212 22.212 0 0 0 7.43 1.15 29.277 29.277 0 0 0 10.3-1.94 32.156 32.156 0 0 0 9.68-5.82 37.845 37.845 0 0 0 7.9-9.74c2.27-3.9 3.93-9.79 5-15h-9.68l1.64-6.91h30.38l-2.97 6.95ZM36.6 119.43a7.693 7.693 0 0 1-3.18-3.08 6.002 6.002 0 0 1-.69-2.49 2.493 2.493 0 0 1 0-.47c.038-.309.188-.593.42-.8.22-.221.518-.347.83-.35h4.15c.248-.018.494.057.69.21.182.211.281.481.28.76a3.47 3.47 0 0 0 1 2.1 4.229 4.229 0 0 0 3.05.85c3.72 0 5.963-1.843 6.73-5.53l.64-3.14a12.144 12.144 0 0 1-3.22 2.22 9.724 9.724 0 0 1-4.06.78c-2.767 0-4.827-.723-6.18-2.17a8.34 8.34 0 0 1-2-5.94c-.01-.928.068-1.856.23-2.77.126-.767.296-1.597.51-2.49a17.611 17.611 0 0 1 4.24-8 10.3 10.3 0 0 1 7.66-3 8.93 8.93 0 0 1 4.26 1 6.38 6.38 0 0 1 2.65 2.51l.37-1.84a1.29 1.29 0 0 1 .51-.83 1.34 1.34 0 0 1 .87-.32h3.69a.87.87 0 0 1 1 .87.92.92 0 0 1 0 .28L56.24 110a14.37 14.37 0 0 1-4.29 8c-2.087 1.833-5.144 2.747-9.17 2.74a12.323 12.323 0 0 1-6.18-1.31Zm13.09-15.51a8.529 8.529 0 0 0 2.45-4c.258-.987.458-1.99.6-3 .075-.483.108-.971.1-1.46a4.75 4.75 0 0 0-1-3.13 3.91 3.91 0 0 0-3.2-1.2 5.59 5.59 0 0 0-4.24 1.73 10.001 10.001 0 0 0-2.4 4.4c-.21.89-.38 1.64-.51 2.26-.099.663-.159 1.33-.18 2 0 2.74 1.31 4.1 3.92 4.1a6.22 6.22 0 0 0 4.46-1.7ZM65.06 108.88a8.267 8.267 0 0 1-2.38-6.37c-.009-.925.068-1.849.23-2.76.122-.78.292-1.551.51-2.31a15.13 15.13 0 0 1 5-8.25 13.34 13.34 0 0 1 8.74-3c3.013 0 5.293.777 6.84 2.33a8.64 8.64 0 0 1 2.33 6.39 18.493 18.493 0 0 1-.37 3.46l-.23 1a1.35 1.35 0 0 1-.48.79 1.4 1.4 0 0 1-.9.32H69.04l-.09.37a8.41 8.41 0 0 0-.14 1.52 5 5 0 0 0 1 3.23 3.529 3.529 0 0 0 2.93 1.24 6.582 6.582 0 0 0 4.79-2.12c.249-.247.528-.462.83-.64.248-.108.519-.156.79-.14h4a.817.817 0 0 1 .65.27c.12.127.184.296.18.47.01.076.01.154 0 .23a6.265 6.265 0 0 1-2 2.58 14.881 14.881 0 0 1-4.29 2.51 15.334 15.334 0 0 1-5.85 1.09c-2.94 0-5.2-.737-6.78-2.21Zm15-12.31v-.14a8.66 8.66 0 0 0 .18-1.75 4.54 4.54 0 0 0-1-3.14 3.81 3.81 0 0 0-3-1.15 5.638 5.638 0 0 0-4.1 1.66 8.23 8.23 0 0 0-2.26 4.38v.14h10.18ZM90.95 110.17a7.263 7.263 0 0 1-3-2.19 4.091 4.091 0 0 1-.92-2.38 1.358 1.358 0 0 1 .41-1c.243-.247.573-.391.92-.4h3.65a1.01 1.01 0 0 1 .32 0c.121.06.22.158.28.28l.82.83a4.546 4.546 0 0 0 1.62 1.15c.717.291 1.486.43 2.26.41a6.323 6.323 0 0 0 3.459-.89 2.809 2.809 0 0 0 1.38-2.47 1.926 1.926 0 0 0-1.22-1.71 20.832 20.832 0 0 0-4.59-1.38 10.913 10.913 0 0 1-4.75-2A4.35 4.35 0 0 1 90.02 95c0-.526.064-1.05.19-1.56a7.3 7.3 0 0 1 1.84-3.48 11.001 11.001 0 0 1 3.88-2.68 13.549 13.549 0 0 1 5.43-1c1.76-.046 3.508.295 5.12 1a6.994 6.994 0 0 1 2.91 2.31c.433.582.687 1.277.73 2 .015.12.015.24 0 .36a1.156 1.156 0 0 1-.44.79c-.24.183-.538.275-.84.26h-3.36a.792.792 0 0 1-.69-.32c-.19-.19-.48-.49-.88-.92a4.505 4.505 0 0 0-3.46-1.34 5 5 0 0 0-2.81.74 3.073 3.073 0 0 0-1.38 1.93c-.02.2-.02.4 0 .6a1.89 1.89 0 0 0 1.15 1.62 17.06 17.06 0 0 0 4.38 1.29c4.667.92 7 2.84 7 5.76a9.451 9.451 0 0 1-.18 1.48 8.088 8.088 0 0 1-3.94 5.25 15.5 15.5 0 0 1-8.32 2 13.186 13.186 0 0 1-5.4-.92ZM115.839 109.18a5.283 5.283 0 0 1-1.415-1.967 5.281 5.281 0 0 1-.385-2.393c.003-.946.114-1.889.33-2.81l2.26-10.47h-3.64a.836.836 0 0 1-.72-.34 1.002 1.002 0 0 1-.16-.81l.55-2.63c.062-.311.237-.59.49-.78.248-.211.565-.325.89-.32h3.6l1.68-7.66c.051-.314.214-.599.46-.8.233-.195.527-.302.83-.3h3.74a1.001 1.001 0 0 1 .78.32.867.867 0 0 1 .18.55.74.74 0 0 1 0 .23l-1.66 7.66h5.76a.839.839 0 0 1 .74.32.867.867 0 0 1 .18.55.74.74 0 0 1 0 .23l-.56 2.63a1.385 1.385 0 0 1-1.33 1.15h-5.77l-2.12 10a11.023 11.023 0 0 0-.32 2.16 1.772 1.772 0 0 0 .53 1.39 2.76 2.76 0 0 0 1.78.46h3.31a.925.925 0 0 1 .74.32c.129.154.196.35.19.55a.806.806 0 0 1 0 .23l-.6 2.86a1.257 1.257 0 0 1-.48.81 1.38 1.38 0 0 1-.85.3h-3.41c-2.52.01-4.38-.48-5.6-1.44ZM131.519 108.85a8.69 8.69 0 0 1-2-6.06c.012-.894.089-1.787.23-2.67l.65-3a17.529 17.529 0 0 1 4.24-8 10.33 10.33 0 0 1 7.7-3 8.998 8.998 0 0 1 4.19.81 6.645 6.645 0 0 1 2.49 2.28l.32-1.52c.054-.315.221-.6.47-.8.232-.196.527-.302.83-.3h3.64a.939.939 0 0 1 .78.32c.125.156.192.35.19.55a.806.806 0 0 1 0 .23l-4.66 21.76a1.312 1.312 0 0 1-1.29 1.11h-3.64a.93.93 0 0 1-.76-.32.935.935 0 0 1-.16-.79l.37-1.7a12.69 12.69 0 0 1-3.3 2.46 9.522 9.522 0 0 1-4.22.81 7.685 7.685 0 0 1-6.07-2.17Zm12.49-4.42a8.634 8.634 0 0 0 2.35-4.17c.311-1.17.558-2.354.74-3.55.088-.488.135-.984.14-1.48a4.327 4.327 0 0 0-1-3 3.908 3.908 0 0 0-3.11-1.13c-3.08 0-5.246 2.043-6.5 6.13-.272.9-.46 1.825-.56 2.76a20.506 20.506 0 0 0-.18 2.13c0 2.667 1.23 4 3.69 4a5.99 5.99 0 0 0 4.43-1.69ZM156.209 110.31a.905.905 0 0 1-.16-.79l6.5-30.52c.059-.305.221-.581.46-.78.225-.21.523-.325.83-.32h3.82a.997.997 0 0 1 .79.32.867.867 0 0 1 .18.55c.008.077.008.154 0 .23l-6.51 30.52a1.257 1.257 0 0 1-.48.81 1.38 1.38 0 0 1-.85.3h-3.83a.867.867 0 0 1-.75-.32ZM172.389 109.18a5.283 5.283 0 0 1-1.415-1.967 5.281 5.281 0 0 1-.385-2.393c.003-.946.114-1.889.33-2.81l2.26-10.47h-3.65a.825.825 0 0 1-.71-.34 1.017 1.017 0 0 1-.16-.81l.55-2.63c.062-.311.237-.59.49-.78.248-.211.565-.325.89-.32h3.6l1.65-7.66c.046-.316.211-.602.46-.8.233-.195.527-.302.83-.3h3.71a1.001 1.001 0 0 1 .78.32.867.867 0 0 1 .18.55.74.74 0 0 1 0 .23l-1.66 7.66h5.76a.839.839 0 0 1 .74.32.867.867 0 0 1 .18.55.74.74 0 0 1 0 .23l-.56 2.63a1.385 1.385 0 0 1-1.33 1.15h-5.77l-2.12 10a11.023 11.023 0 0 0-.32 2.16 1.772 1.772 0 0 0 .53 1.39c.52.352 1.145.514 1.77.46h3.32a.925.925 0 0 1 .74.32c.125.156.192.35.19.55a.806.806 0 0 1 0 .23l-.6 2.86a1.257 1.257 0 0 1-.48.81 1.388 1.388 0 0 1-.86.3h-3.27c-2.61.01-4.47-.48-5.67-1.44ZM188.529 108.88a8.282 8.282 0 0 1-2.38-6.37 15.11 15.11 0 0 1 .23-2.76c.123-.78.293-1.551.51-2.31a15.132 15.132 0 0 1 5-8.25 13.38 13.38 0 0 1 8.74-3c3.014 0 5.294.777 6.84 2.33a8.585 8.585 0 0 1 2.37 6.39 18.452 18.452 0 0 1-.37 3.46l-.23 1a1.35 1.35 0 0 1-.48.79 1.398 1.398 0 0 1-.9.32h-15.3l-.1.37a8.51 8.51 0 0 0-.14 1.52 5.007 5.007 0 0 0 1 3.23 3.506 3.506 0 0 0 2.92 1.24 6.601 6.601 0 0 0 4.8-2.12c.233-.275.503-.517.8-.72a1.66 1.66 0 0 1 .78-.14h4a.82.82 0 0 1 .65.27c.12.127.185.296.18.47a.74.74 0 0 1 0 .23 6.445 6.445 0 0 1-2 2.58 15.003 15.003 0 0 1-4.29 2.56 15.32 15.32 0 0 1-5.83 1.08c-2.946.027-5.213-.697-6.8-2.17Zm15-12.31.05-.14c.12-.576.18-1.162.18-1.75a4.538 4.538 0 0 0-1-3.14 3.794 3.794 0 0 0-3-1.15 5.654 5.654 0 0 0-4.1 1.66 8.236 8.236 0 0 0-2.26 4.38v.14h10.13ZM210.949 110.31a.905.905 0 0 1-.16-.79l4.61-21.76c.057-.296.212-.564.44-.76.236-.206.538-.32.85-.32h3.78a.773.773 0 0 1 .69.32c.129.154.196.35.19.55a.79.79 0 0 1-.05.23l-.41 1.89a10.833 10.833 0 0 1 8-3.46 8.12 8.12 0 0 1 5.83 1.92 6.996 6.996 0 0 1 2 5.37 15.6 15.6 0 0 1-.37 3.09l-2.77 13a1.257 1.257 0 0 1-.48.81 1.388 1.388 0 0 1-.86.3h-4.05a.876.876 0 0 1-.72-.32.935.935 0 0 1-.16-.79l2.68-12.68c.176-.786.283-1.586.32-2.39a3.23 3.23 0 0 0-.9-2.52 4.39 4.39 0 0 0-2.93-.8 6.692 6.692 0 0 0-4.45 1.52 7.384 7.384 0 0 0-2.42 4.19l-2.67 12.68a1.314 1.314 0 0 1-1.29 1.11h-4.06a.861.861 0 0 1-.64-.39ZM252.609 91.26a.4.4 0 0 1-.13-.31V78.4a.434.434 0 0 1 .45-.46h7.84a.454.454 0 0 1 .33.12.477.477 0 0 1 .13.34v.77a.424.424 0 0 1-.13.31.416.416 0 0 1-.33.13h-6.42v4.48h6a.425.425 0 0 1 .34.12.42.42 0 0 1 .12.34v.77a.393.393 0 0 1-.13.31.437.437 0 0 1-.33.13h-6V91a.4.4 0 0 1-.14.31.429.429 0 0 1-.32.13h-1a.42.42 0 0 1-.28-.18ZM264.109 90.4a4.752 4.752 0 0 1-1-3.14v-5.42a.416.416 0 0 1 .273-.411c.054-.02.11-.03.167-.029h1a.429.429 0 0 1 .31.12.415.415 0 0 1 .13.32v5.32c0 1.91.83 2.86 2.5 2.86a2.511 2.511 0 0 0 1.92-.76 2.992 2.992 0 0 0 .71-2.1v-5.32a.44.44 0 0 1 .12-.32.451.451 0 0 1 .32-.12h1a.408.408 0 0 1 .31.12.432.432 0 0 1 .11.32V91a.41.41 0 0 1-.42.44h-.9a.409.409 0 0 1-.32-.13.418.418 0 0 1-.12-.31v-.9c-.359.48-.833.862-1.38 1.11a4.316 4.316 0 0 1-1.9.37 3.502 3.502 0 0 1-2.83-1.18Zm.94-11.06a.456.456 0 0 1-.11-.31V78a.479.479 0 0 1 .11-.31.392.392 0 0 1 .31-.13h1.06a.387.387 0 0 1 .31.13.392.392 0 0 1 .11.31v1a.39.39 0 0 1-.13.31.399.399 0 0 1-.31.12h-1.06a.412.412 0 0 1-.29-.09Zm3.26 0a.418.418 0 0 1-.12-.31V78a.445.445 0 0 1 .266-.41.409.409 0 0 1 .174-.03h1a.441.441 0 0 1 .44.44v1a.39.39 0 0 1-.13.31.421.421 0 0 1-.31.12h-1a.44.44 0 0 1-.32-.09ZM274.749 91.26a.418.418 0 0 1-.12-.31v-9.09a.482.482 0 0 1 .12-.33.417.417 0 0 1 .32-.13h.88a.44.44 0 0 1 .46.46v.84a2.905 2.905 0 0 1 2.69-1.3h.74a.443.443 0 0 1 .32.12.446.446 0 0 1 .13.32v.79a.386.386 0 0 1-.033.164.44.44 0 0 1-.417.256h-1.15a2.179 2.179 0 0 0-1.63.6 2.255 2.255 0 0 0-.6 1.65V91a.39.39 0 0 1-.13.31.437.437 0 0 1-.33.13h-.94a.405.405 0 0 1-.31-.18ZM287.009 91.26a.418.418 0 0 1-.12-.31V78.4a.47.47 0 0 1 .12-.34.446.446 0 0 1 .32-.12h4.36a5.739 5.739 0 0 1 4.15 1.29 5.489 5.489 0 0 1 1.34 3.91v3.02a7.382 7.382 0 0 1-.6 3 3.505 3.505 0 0 1-1.72 1.7 7.327 7.327 0 0 1-3.11.56h-4.46a.409.409 0 0 1-.28-.16Zm4.68-1.5c.722.027 1.441-.1 2.11-.37a2.28 2.28 0 0 0 1.13-1.16 5.576 5.576 0 0 0 .39-2.14v-2.87a3.918 3.918 0 0 0-.9-2.78 3.878 3.878 0 0 0-2.83-.87h-2.82v10.19h2.92ZM300.659 90.36a5.008 5.008 0 0 1-1.3-3.33v-1.29a5.082 5.082 0 0 1 1.32-3.31 4.642 4.642 0 0 1 6.43.13 5.397 5.397 0 0 1 1.17 3.66v.33a.393.393 0 0 1-.13.31.382.382 0 0 1-.31.14h-6.65v.17c.017.77.284 1.515.76 2.12a2.248 2.248 0 0 0 1.85.88 2.66 2.66 0 0 0 1.45-.36 2.7 2.7 0 0 0 .84-.74c.072-.106.16-.2.26-.28a.791.791 0 0 1 .32 0h.94a.429.429 0 0 1 .28.09.332.332 0 0 1 .12.27 1.712 1.712 0 0 1-.53 1 4.253 4.253 0 0 1-1.48 1c-.686.3-1.43.446-2.18.43a4.21 4.21 0 0 1-3.16-1.22Zm5.79-4.7v-.06a3.198 3.198 0 0 0-.72-2.16 2.427 2.427 0 0 0-1.93-.83 2.378 2.378 0 0 0-1.91.83 3.246 3.246 0 0 0-.7 2.16v.06h5.26ZM310.619 91.26a.426.426 0 0 1-.13-.31v-9.11a.435.435 0 0 1 .13-.32.444.444 0 0 1 .32-.12h.9a.411.411 0 0 1 .44.44v.67a3.33 3.33 0 0 1 2.79-1.31 3.108 3.108 0 0 1 3 1.77 3.366 3.366 0 0 1 1.3-1.29 3.822 3.822 0 0 1 1.91-.48 3.326 3.326 0 0 1 2.56 1.08 4.402 4.402 0 0 1 1 3.11V91a.4.4 0 0 1-.12.31.412.412 0 0 1-.32.13h-.9a.409.409 0 0 1-.32-.13.426.426 0 0 1-.13-.31v-5.43a3.055 3.055 0 0 0-.62-2.16 2.174 2.174 0 0 0-1.64-.65 2.102 2.102 0 0 0-1.56.66 3.004 3.004 0 0 0-.65 2.15V91a.424.424 0 0 1-.13.31.403.403 0 0 1-.32.13h-.9a.423.423 0 0 1-.44-.44v-5.43a3.052 3.052 0 0 0-.64-2.16 2.21 2.21 0 0 0-1.63-.65 2.127 2.127 0 0 0-1.56.66 3.003 3.003 0 0 0-.65 2.13V91a.4.4 0 0 1-.12.31.412.412 0 0 1-.32.13h-.92a.406.406 0 0 1-.33-.18ZM328.319 90.39a4.582 4.582 0 0 1-1.24-3.17v-1.65a4.635 4.635 0 0 1 1.24-3.17 5.061 5.061 0 0 1 6.54 0 4.636 4.636 0 0 1 1.25 3.17v1.65a4.619 4.619 0 0 1-1.27 3.17 5.1 5.1 0 0 1-6.55 0h.03Zm5.18-1.06a3.366 3.366 0 0 0 .76-2.21c.027-.486.027-.974 0-1.46a3.384 3.384 0 0 0-.76-2.21 2.444 2.444 0 0 0-1.91-.77 2.487 2.487 0 0 0-1.92.77 3.336 3.336 0 0 0-.75 2.21v1.46c-.026.803.24 1.589.75 2.21a2.452 2.452 0 0 0 1.92.77 2.419 2.419 0 0 0 1.91-.77ZM338.579 91.26a.426.426 0 0 1-.13-.31V78.19a.45.45 0 0 1 .129-.321.434.434 0 0 1 .321-.129h.9c.12 0 .235.047.32.13a.437.437 0 0 1 .12.32v6.68l3.79-3.15c.069-.043.133-.094.19-.15.082-.056.169-.103.26-.14.107-.012.214-.012.32 0h1a.36.36 0 0 1 .29.11.38.38 0 0 1 .12.29.436.436 0 0 1-.23.36l-4.44 3.69 4.92 4.79c.15.13.23.24.23.35a.408.408 0 0 1-.4.4h-1a1.063 1.063 0 0 1-.42-.06 1.762 1.762 0 0 1-.35-.27l-4.28-4.09v4a.4.4 0 0 1-.12.31.412.412 0 0 1-.32.13h-.9a.413.413 0 0 1-.32-.18ZM348.579 91.26a.418.418 0 0 1-.12-.31v-9.09a.482.482 0 0 1 .12-.33.42.42 0 0 1 .32-.13h.94a.44.44 0 0 1 .32.13.447.447 0 0 1 .14.33v.84a2.88 2.88 0 0 1 2.69-1.3h.75a.437.437 0 0 1 .31.12.415.415 0 0 1 .13.32v.79a.36.36 0 0 1-.03.165.356.356 0 0 1-.1.135.428.428 0 0 1-.31.12h-1.16a2.196 2.196 0 0 0-1.63.6 2.255 2.255 0 0 0-.6 1.65V91a.39.39 0 0 1-.13.31.437.437 0 0 1-.33.13h-.94a.42.42 0 0 1-.37-.18ZM356.839 91.2a3.338 3.338 0 0 1-1.28-1 2.507 2.507 0 0 1-.47-1.47 2.54 2.54 0 0 1 1.05-2.09 5.832 5.832 0 0 1 2.83-1.06l2.87-.41v-.55c0-1.31-.75-2-2.25-2a2.452 2.452 0 0 0-1.39.35 2.561 2.561 0 0 0-.8.84.578.578 0 0 1-.15.25.36.36 0 0 1-.24.08h-.82a.422.422 0 0 1-.3-.13.388.388 0 0 1-.13-.3c.057-.366.209-.71.44-1a3.26 3.26 0 0 1 1.27-1 4.744 4.744 0 0 1 2.14-.44 4.094 4.094 0 0 1 3.09 1c.631.681.968 1.583.94 2.51V91a.4.4 0 0 1-.12.31.412.412 0 0 1-.32.13h-.88a.409.409 0 0 1-.32-.13.426.426 0 0 1-.13-.31v-.83a3.277 3.277 0 0 1-1.23 1 4.396 4.396 0 0 1-2.05.42 4.11 4.11 0 0 1-1.75-.39Zm4.2-1.88a3.228 3.228 0 0 0 .8-2.32v-.54l-2.23.33a5.217 5.217 0 0 0-2.06.64 1.361 1.361 0 0 0-.06 2.33c.451.278.971.42 1.5.41a2.73 2.73 0 0 0 2.08-.85h-.03ZM367.209 88v-5.07h-1.5a.443.443 0 0 1-.32-.12.455.455 0 0 1-.12-.32v-.65a.411.411 0 0 1 .44-.44h1.5v-3.21a.44.44 0 0 1 .12-.32.461.461 0 0 1 .32-.13h.9a.437.437 0 0 1 .419.276.43.43 0 0 1 .031.174v3.21h2.38a.448.448 0 0 1 .32.12.437.437 0 0 1 .12.32v.65a.412.412 0 0 1-.44.44h-2.38v4.94a2.608 2.608 0 0 0 .32 1.45 1.204 1.204 0 0 0 1.08.49h1.17a.418.418 0 0 1 .32.13.437.437 0 0 1 .12.32V91a.4.4 0 0 1-.12.31.412.412 0 0 1-.32.13h-1.33c-2.02-.033-3.03-1.18-3.03-3.44ZM373.839 79.41a.465.465 0 0 1-.13-.32v-1a.492.492 0 0 1 .13-.33.443.443 0 0 1 .32-.13h1.21a.458.458 0 0 1 .425.28.442.442 0 0 1 .035.18v1a.422.422 0 0 1-.14.32.448.448 0 0 1-.32.12h-1.21a.439.439 0 0 1-.32-.12Zm.15 11.85a.413.413 0 0 1-.15-.26v-9.16a.44.44 0 0 1 .12-.32.451.451 0 0 1 .32-.12h.92a.411.411 0 0 1 .44.44V91a.4.4 0 0 1-.12.31.404.404 0 0 1-.32.13h-.92a.418.418 0 0 1-.28-.18h-.01ZM379.239 90.36a5.005 5.005 0 0 1-1.3-3.36v-1.29a5.082 5.082 0 0 1 1.32-3.31 4.642 4.642 0 0 1 6.43.13 5.398 5.398 0 0 1 1.15 3.69v.33a.441.441 0 0 1-.44.44h-6.65v.17c.017.77.284 1.515.76 2.12a2.24 2.24 0 0 0 1.85.88 2.659 2.659 0 0 0 1.48-.36 2.7 2.7 0 0 0 .84-.74c.072-.106.16-.2.26-.28a.73.73 0 0 1 .31 0h.94a.437.437 0 0 1 .29.09.332.332 0 0 1 .12.27 1.712 1.712 0 0 1-.53 1 4.36 4.36 0 0 1-1.48 1c-.686.3-1.43.446-2.18.43a4.21 4.21 0 0 1-3.17-1.21Zm5.79-4.7v-.06a3.198 3.198 0 0 0-.72-2.16 2.427 2.427 0 0 0-1.93-.83 2.378 2.378 0 0 0-1.91.83 3.246 3.246 0 0 0-.7 2.16v.06h5.26ZM394.389 90.4a4.693 4.693 0 0 1-1-3.14v-5.42a.416.416 0 0 1 .13-.32.441.441 0 0 1 .31-.12h1a.445.445 0 0 1 .32.12.447.447 0 0 1 .13.32v5.32c0 1.91.83 2.86 2.49 2.86a2.52 2.52 0 0 0 1.93-.76 2.992 2.992 0 0 0 .71-2.1v-5.32a.44.44 0 0 1 .12-.32.451.451 0 0 1 .32-.12h1a.408.408 0 0 1 .31.12.432.432 0 0 1 .11.32V91a.41.41 0 0 1-.42.44h-1.01a.409.409 0 0 1-.32-.13.418.418 0 0 1-.12-.31v-.9a3.554 3.554 0 0 1-1.31 1.11 4.316 4.316 0 0 1-1.9.37 3.495 3.495 0 0 1-2.8-1.18ZM405.029 91.26a.426.426 0 0 1-.13-.31v-9.11a.435.435 0 0 1 .13-.32.444.444 0 0 1 .32-.12h.9a.448.448 0 0 1 .32.12.437.437 0 0 1 .12.32v.84a3.947 3.947 0 0 1 1.32-1.09 4.132 4.132 0 0 1 1.89-.39 3.594 3.594 0 0 1 2.87 1.19 4.565 4.565 0 0 1 1 3.14V91a.4.4 0 0 1-.12.31.412.412 0 0 1-.32.13h-1a.423.423 0 0 1-.44-.44v-5.38a3.076 3.076 0 0 0-.66-2.11 2.436 2.436 0 0 0-1.92-.75 2.49 2.49 0 0 0-1.92.76 3.001 3.001 0 0 0-.71 2.1V91a.4.4 0 0 1-.12.31.412.412 0 0 1-.32.13h-1a.413.413 0 0 1-.21-.18ZM417.069 90.27a5.477 5.477 0 0 1-1.07-3.3v-1.15a5.522 5.522 0 0 1 1.07-3.3 3.594 3.594 0 0 1 3-1.32 3.763 3.763 0 0 1 3.11 1.41v-4.42a.45.45 0 0 1 .129-.321.434.434 0 0 1 .321-.129h.92c.12 0 .235.047.32.13a.437.437 0 0 1 .12.32V91a.4.4 0 0 1-.12.31.412.412 0 0 1-.32.13h-.87a.4.4 0 0 1-.31-.13.401.401 0 0 1-.13-.31v-.81a3.768 3.768 0 0 1-3.17 1.44 3.578 3.578 0 0 1-3-1.36Zm5.41-1.12c.457-.602.71-1.334.72-2.09a6.35 6.35 0 0 0 0-.73 6.524 6.524 0 0 0 0-.74 3.165 3.165 0 0 0-.73-2 2.389 2.389 0 0 0-2-.85 2.27 2.27 0 0 0-2 .85 3.918 3.918 0 0 0-.69 2.23v.55c.04 2.42.944 3.63 2.71 3.63a2.343 2.343 0 0 0 1.99-.85ZM432.839 90.27a5.413 5.413 0 0 1-1.07-3.3v-1.15a5.456 5.456 0 0 1 1.07-3.3 3.593 3.593 0 0 1 3-1.32 3.763 3.763 0 0 1 3.11 1.41v-4.42a.416.416 0 0 1 .13-.32.44.44 0 0 1 .31-.13h.93c.117 0 .228.047.31.13a.415.415 0 0 1 .13.32V91a.39.39 0 0 1-.13.31.4.4 0 0 1-.31.13h-.87a.425.425 0 0 1-.44-.44v-.81a3.766 3.766 0 0 1-3.17 1.39 3.58 3.58 0 0 1-3-1.31Zm5.41-1.12c.449-.606.7-1.336.72-2.09v-1.47a3.165 3.165 0 0 0-.73-2 2.389 2.389 0 0 0-2-.85 2.299 2.299 0 0 0-2 .85 4.007 4.007 0 0 0-.68 2.23v.55c0 2.42.897 3.63 2.69 3.63a2.343 2.343 0 0 0 1.99-.85h.01ZM443.459 79.41a.465.465 0 0 1-.13-.32v-1a.492.492 0 0 1 .13-.33.443.443 0 0 1 .32-.13h1.21a.477.477 0 0 1 .425.28.442.442 0 0 1 .035.18v1a.422.422 0 0 1-.14.32.468.468 0 0 1-.32.12h-1.21a.439.439 0 0 1-.32-.12Zm.15 11.85a.418.418 0 0 1-.12-.31v-9.11a.44.44 0 0 1 .12-.32.451.451 0 0 1 .32-.12h.91a.411.411 0 0 1 .44.44V91a.4.4 0 0 1-.12.31.404.404 0 0 1-.32.13h-.92a.424.424 0 0 1-.31-.18ZM448.839 90.36a5.008 5.008 0 0 1-1.3-3.33v-1.29a5.083 5.083 0 0 1 1.3-3.31 4.121 4.121 0 0 1 3.12-1.23 4.175 4.175 0 0 1 3.31 1.36 5.397 5.397 0 0 1 1.17 3.66v.33a.393.393 0 0 1-.13.31.404.404 0 0 1-.32.13h-6.64v.17c.012.771.279 1.517.76 2.12a2.232 2.232 0 0 0 1.85.88 2.66 2.66 0 0 0 1.45-.36 2.7 2.7 0 0 0 .84-.74c.072-.106.16-.2.26-.28a.73.73 0 0 1 .31 0h1.02a.437.437 0 0 1 .29.09.343.343 0 0 1 .12.27 1.712 1.712 0 0 1-.53 1 4.36 4.36 0 0 1-1.48 1c-.687.3-1.43.446-2.18.43a4.21 4.21 0 0 1-3.22-1.21Zm5.79-4.7v-.06a3.198 3.198 0 0 0-.72-2.16 2.428 2.428 0 0 0-1.93-.83 2.378 2.378 0 0 0-1.91.83 3.246 3.246 0 0 0-.7 2.16v.06h5.26ZM253.469 109.43a5.395 5.395 0 0 1-1.49-3.76V102.06a4.95 4.95 0 0 1 3.33-4.853 4.935 4.935 0 0 1 2.07-.247 6.188 6.188 0 0 1 2.88.61 4.602 4.602 0 0 1 1.77 1.43 3.17 3.17 0 0 1 .64 1.61.296.296 0 0 1-.12.25.425.425 0 0 1-.28.1h-1.14a.498.498 0 0 1-.29.04.65.65 0 0 1-.16-.28 2.993 2.993 0 0 0-1.11-1.48 3.55 3.55 0 0 0-2.2-.61 3.426 3.426 0 0 0-2.49.86 3.81 3.81 0 0 0-1 2.69v3.42a3.873 3.873 0 0 0 1 2.72 3.447 3.447 0 0 0 2.49.88 3.66 3.66 0 0 0 2.58-.89 3.436 3.436 0 0 0 1-2.65v-.81h-2.91a.441.441 0 0 1-.32-.12.498.498 0 0 1-.12-.34v-.61a.482.482 0 0 1 .12-.33.428.428 0 0 1 .32-.14h4.34c.12 0 .235.047.32.13a.447.447 0 0 1 .12.34v1.84a5.602 5.602 0 0 1-.65 2.75 4.572 4.572 0 0 1-1.88 1.82 6.303 6.303 0 0 1-2.91.64 5.356 5.356 0 0 1-3.91-1.4ZM266.159 109.58a5.001 5.001 0 0 1-1.3-3.34v-1.28a5.064 5.064 0 0 1 1.32-3.31 4.633 4.633 0 0 1 6.42.13 5.347 5.347 0 0 1 1.18 3.66v.32a.433.433 0 0 1-.128.321.447.447 0 0 1-.322.129h-6.65v.17c.021.77.288 1.512.76 2.12a2.263 2.263 0 0 0 1.86.88 2.66 2.66 0 0 0 1.45-.36c.327-.189.612-.44.84-.74.069-.105.153-.2.25-.28a.784.784 0 0 1 .32 0h.94a.454.454 0 0 1 .29.1.303.303 0 0 1 .093.12.31.31 0 0 1 .027.15 1.711 1.711 0 0 1-.53 1 4.364 4.364 0 0 1-1.48 1 5.366 5.366 0 0 1-2.18.43 4.203 4.203 0 0 1-3.16-1.22Zm5.79-4.7v-.06a3.197 3.197 0 0 0-.72-2.16 2.423 2.423 0 0 0-1.93-.84 2.351 2.351 0 0 0-1.91.84 3.25 3.25 0 0 0-.71 2.16v.06h5.27ZM277.229 110.37a3.938 3.938 0 0 1-1.36-1 1.64 1.64 0 0 1-.45-.93.359.359 0 0 1 .14-.29.53.53 0 0 1 .3-.11h.87a.433.433 0 0 1 .34.19c.284.337.622.625 1 .85.447.221.942.328 1.44.31a3 3 0 0 0 1.63-.4 1.222 1.222 0 0 0 .62-1.08 1.125 1.125 0 0 0-.26-.76 2.097 2.097 0 0 0-.88-.52 16.575 16.575 0 0 0-1.86-.49 5.006 5.006 0 0 1-2.37-1.06 2.408 2.408 0 0 1-.7-1.79c.003-.496.152-.98.43-1.39.32-.467.758-.84 1.27-1.08a4.596 4.596 0 0 1 2-.41 4.994 4.994 0 0 1 2.09.4c.507.225.953.568 1.3 1 .239.249.389.568.43.91a.401.401 0 0 1-.12.29.475.475 0 0 1-.3.11h-.81a.464.464 0 0 1-.38-.19c-.21-.24-.38-.43-.53-.57a1.989 1.989 0 0 0-.64-.35 2.98 2.98 0 0 0-1-.16 2.304 2.304 0 0 0-1.43.4 1.247 1.247 0 0 0-.5 1c-.002.244.075.483.22.68.224.235.502.41.81.51.576.197 1.164.357 1.76.48a5.461 5.461 0 0 1 2.55 1.08 2.464 2.464 0 0 1 .76 1.84 2.525 2.525 0 0 1-.48 1.5 3.115 3.115 0 0 1-1.42 1 5.706 5.706 0 0 1-2.22.39 5.418 5.418 0 0 1-2.25-.36ZM286.669 109.58a5.001 5.001 0 0 1-1.3-3.34v-1.28a5.064 5.064 0 0 1 1.32-3.31 4.643 4.643 0 0 1 6.43.13 5.397 5.397 0 0 1 1.17 3.66v.32a.437.437 0 0 1-.12.32.458.458 0 0 1-.32.13h-6.65v.17c.017.77.284 1.515.76 2.12a2.254 2.254 0 0 0 1.85.88 2.694 2.694 0 0 0 1.46-.36c.322-.191.604-.442.83-.74.072-.106.16-.201.26-.28a.75.75 0 0 1 .32 0h.94a.483.483 0 0 1 .29.1.33.33 0 0 1 .11.27 1.662 1.662 0 0 1-.53 1 4.256 4.256 0 0 1-1.48 1 5.333 5.333 0 0 1-2.18.43 4.204 4.204 0 0 1-3.16-1.22Zm5.8-4.7v-.06a3.197 3.197 0 0 0-.72-2.16 2.429 2.429 0 0 0-1.94-.84 2.364 2.364 0 0 0-1.91.84 3.246 3.246 0 0 0-.7 2.16v.06h5.27ZM296.639 110.48a.455.455 0 0 1-.12-.32V97.4a.445.445 0 0 1 .266-.41.409.409 0 0 1 .174-.03h.9a.41.41 0 0 1 .32.13.432.432 0 0 1 .12.31v12.76a.437.437 0 0 1-.265.42.402.402 0 0 1-.175.03h-.9a.405.405 0 0 1-.32-.13ZM301.159 110.48a.438.438 0 0 1-.13-.32V97.4a.444.444 0 0 1 .13-.31.415.415 0 0 1 .32-.13h.9a.418.418 0 0 1 .32.13.432.432 0 0 1 .12.31v12.76a.437.437 0 0 1-.12.32.413.413 0 0 1-.32.13h-.9a.405.405 0 0 1-.32-.13ZM306.739 110.37a3.84 3.84 0 0 1-1.36-1 1.59 1.59 0 0 1-.46-.93.344.344 0 0 1 .15-.29.48.48 0 0 1 .3-.11h.86a.451.451 0 0 1 .35.19c.281.34.62.627 1 .85.446.226.942.332 1.44.31a2.994 2.994 0 0 0 1.62-.4 1.212 1.212 0 0 0 .63-1.08 1.125 1.125 0 0 0-.26-.76 2.15 2.15 0 0 0-.89-.52 15.55 15.55 0 0 0-1.85-.49 4.947 4.947 0 0 1-2.38-1.06 2.425 2.425 0 0 1-.7-1.79 2.51 2.51 0 0 1 .44-1.39c.316-.466.751-.84 1.26-1.08a4.596 4.596 0 0 1 2-.41 5.11 5.11 0 0 1 2.1.4c.505.225.947.568 1.29 1 .24.249.395.567.44.91a.408.408 0 0 1-.13.29.438.438 0 0 1-.3.11h-.8a.471.471 0 0 1-.39-.19 6.072 6.072 0 0 0-.53-.57 1.921 1.921 0 0 0-.63-.35 3.118 3.118 0 0 0-1.05-.16 2.267 2.267 0 0 0-1.42.4 1.247 1.247 0 0 0-.5 1c-.005.243.068.482.21.68.226.237.508.413.82.51a13.96 13.96 0 0 0 1.76.48 5.413 5.413 0 0 1 2.58 1.1 2.417 2.417 0 0 1 .76 1.84 2.525 2.525 0 0 1-.48 1.5 3.08 3.08 0 0 1-1.41 1 5.706 5.706 0 0 1-2.22.39 5.396 5.396 0 0 1-2.25-.38ZM316.159 109.64a4.643 4.643 0 0 1-1.24-3.26v-1.54a4.643 4.643 0 0 1 1.24-3.26 4.369 4.369 0 0 1 3.22-1.16 5.06 5.06 0 0 1 2.34.5c.578.275 1.072.7 1.43 1.23.301.431.478.936.51 1.46a.346.346 0 0 1-.11.31.466.466 0 0 1-.33.11h-.92a.459.459 0 0 1-.29-.07.727.727 0 0 1-.19-.31 2.537 2.537 0 0 0-.93-1.32 2.639 2.639 0 0 0-1.49-.39 2.524 2.524 0 0 0-1.028.168 2.536 2.536 0 0 0-.872.572 3.375 3.375 0 0 0-.76 2.26V106.28a3.415 3.415 0 0 0 .75 2.27 2.499 2.499 0 0 0 1.91.73 2.639 2.639 0 0 0 1.49-.39c.444-.329.77-.792.93-1.32a.846.846 0 0 1 .19-.32.462.462 0 0 1 .29-.08h.92c.122-.003.24.04.33.12a.364.364 0 0 1 .11.32 2.885 2.885 0 0 1-.51 1.45 3.62 3.62 0 0 1-1.42 1.24 4.998 4.998 0 0 1-2.35.5 4.361 4.361 0 0 1-3.22-1.16ZM325.979 110.48a.455.455 0 0 1-.12-.32V97.4a.445.445 0 0 1 .266-.41.409.409 0 0 1 .174-.03h1a.418.418 0 0 1 .32.13.432.432 0 0 1 .12.31v4.48a3.857 3.857 0 0 1 1.31-1.08 4.142 4.142 0 0 1 1.86-.38 3.626 3.626 0 0 1 2.87 1.18 4.615 4.615 0 0 1 1 3.15v5.41a.437.437 0 0 1-.12.32.413.413 0 0 1-.32.13h-1a.419.419 0 0 1-.32-.13.455.455 0 0 1-.12-.32v-5.32a3.075 3.075 0 0 0-.66-2.11 2.45 2.45 0 0 0-1.92-.75 2.527 2.527 0 0 0-1.93.76 2.909 2.909 0 0 0-.72 2.1v5.32a.437.437 0 0 1-.12.32.413.413 0 0 1-.32.13h-1a.407.407 0 0 1-.25-.13ZM338.489 110.41a3.224 3.224 0 0 1-1.28-1 2.584 2.584 0 0 1 .58-3.56 5.826 5.826 0 0 1 2.83-1.06l2.87-.41v-.56c0-1.3-.75-2-2.25-2a2.425 2.425 0 0 0-1.38.36c-.333.212-.61.5-.81.84a.654.654 0 0 1-.15.25.329.329 0 0 1-.24.07h-.82a.43.43 0 0 1-.162-.029.436.436 0 0 1-.138-.091.444.444 0 0 1-.12-.3c.049-.367.197-.713.43-1a3.332 3.332 0 0 1 1.28-1 4.811 4.811 0 0 1 2.13-.43 4.096 4.096 0 0 1 3.09 1c.632.68.97 1.582.94 2.51v6.22a.437.437 0 0 1-.265.42.404.404 0 0 1-.175.03h-.88a.405.405 0 0 1-.32-.13.455.455 0 0 1-.12-.32v-.82a3.532 3.532 0 0 1-1.23 1 4.461 4.461 0 0 1-2.06.42 3.997 3.997 0 0 1-1.75-.41Zm4.2-1.87a3.228 3.228 0 0 0 .8-2.35v-.54l-2.23.32a5.211 5.211 0 0 0-2.06.65 1.351 1.351 0 0 0-.06 2.32 2.936 2.936 0 0 0 3.55-.4ZM349.089 110.48a.455.455 0 0 1-.12-.32v-8h-1.64a.406.406 0 0 1-.415-.266.414.414 0 0 1-.025-.174v-.65a.438.438 0 0 1 .12-.32.462.462 0 0 1 .32-.13h1.64v-1c0-2.18 1.1-3.26 3.3-3.26h1.15a.445.445 0 0 1 .32.12.447.447 0 0 1 .13.32v.65a.447.447 0 0 1-.13.32.43.43 0 0 1-.32.12h-1.11a1.428 1.428 0 0 0-1.21.45c-.261.41-.383.894-.35 1.38v.86h2.48a.448.448 0 0 1 .32.13.441.441 0 0 1 .12.32v.65a.447.447 0 0 1-.12.32.443.443 0 0 1-.32.12h-2.48v8a.437.437 0 0 1-.12.32.413.413 0 0 1-.32.13h-.9a.42.42 0 0 1-.32-.09ZM356.839 107.22v-5.07h-1.5a.413.413 0 0 1-.31-.12.416.416 0 0 1-.13-.32v-.65a.413.413 0 0 1 .13-.32.408.408 0 0 1 .142-.097.406.406 0 0 1 .168-.033h1.5V97.4a.409.409 0 0 1 .13-.31.392.392 0 0 1 .31-.13h.91a.441.441 0 0 1 .44.44v3.21h2.38c.12 0 .235.047.32.13a.441.441 0 0 1 .12.32v.65a.416.416 0 0 1-.266.416.427.427 0 0 1-.174.024h-2.38v4.94a2.612 2.612 0 0 0 .33 1.45 1.174 1.174 0 0 0 1.07.49h1.17a.402.402 0 0 1 .32.13c.083.082.13.194.13.31v.69a.446.446 0 0 1-.275.42.402.402 0 0 1-.175.03h-1.32c-2.026 0-3.04-1.13-3.04-3.39ZM370.999 110.13l-3.56-8.92v-.19a.389.389 0 0 1 .12-.29.366.366 0 0 1 .29-.12h.92a.5.5 0 0 1 .48.33l2.92 7.57 2.92-7.57a.516.516 0 0 1 .46-.33h.94a.38.38 0 0 1 .28.12.386.386 0 0 1 .13.29v.19l-3.58 8.92a.717.717 0 0 1-.71.48h-.82a.727.727 0 0 1-.482-.096.727.727 0 0 1-.308-.384ZM379.349 109.61a4.694 4.694 0 0 1-1.24-3.17v-1.66a4.662 4.662 0 0 1 1.25-3.16 5.061 5.061 0 0 1 6.54 0 4.619 4.619 0 0 1 1.25 3.16v1.66a4.635 4.635 0 0 1-1.24 3.17 5.119 5.119 0 0 1-6.56 0Zm5.19-1.06a3.365 3.365 0 0 0 .76-2.21v-1.46a3.365 3.365 0 0 0-.76-2.21 2.77 2.77 0 0 0-3.83 0 3.211 3.211 0 0 0-.75 2.21v1.46a3.211 3.211 0 0 0 .75 2.21 2.773 2.773 0 0 0 3.83 0ZM389.609 110.48a.423.423 0 0 1-.13-.32v-9.1a.423.423 0 0 1 .13-.32.446.446 0 0 1 .32-.13h.9a.414.414 0 0 1 .31.13.412.412 0 0 1 .13.32v.84a3.825 3.825 0 0 1 1.32-1.09 4.072 4.072 0 0 1 1.89-.39 3.626 3.626 0 0 1 2.87 1.18 4.615 4.615 0 0 1 1 3.15v5.41a.437.437 0 0 1-.12.32.413.413 0 0 1-.32.13h-1a.405.405 0 0 1-.32-.13.455.455 0 0 1-.12-.32v-5.32a3.085 3.085 0 0 0-.67-2.11 2.409 2.409 0 0 0-1.91-.75 2.475 2.475 0 0 0-1.92.76 2.905 2.905 0 0 0-.71 2.1v5.32a.412.412 0 0 1-.13.32.393.393 0 0 1-.31.13h-1a.414.414 0 0 1-.21-.13ZM405.959 110.48a.455.455 0 0 1-.12-.32v-9.1a.438.438 0 0 1 .12-.32.446.446 0 0 1 .32-.13h.86a.447.447 0 0 1 .322.129.438.438 0 0 1 .128.321v.67a3.304 3.304 0 0 1 2.78-1.31c.62-.038 1.237.11 1.771.426.535.315.963.783 1.229 1.344a3.383 3.383 0 0 1 1.31-1.29 3.751 3.751 0 0 1 1.9-.48 3.325 3.325 0 0 1 2.57 1.08 4.385 4.385 0 0 1 1 3.11v5.55a.437.437 0 0 1-.12.32.413.413 0 0 1-.32.13h-.87a.405.405 0 0 1-.32-.13.455.455 0 0 1-.12-.32v-5.38a2.996 2.996 0 0 0-.63-2.15 2.162 2.162 0 0 0-1.64-.65 2.129 2.129 0 0 0-1.56.66 3.004 3.004 0 0 0-.65 2.14v5.38a.412.412 0 0 1-.13.32.393.393 0 0 1-.31.13h-.91a.39.39 0 0 1-.31-.13.423.423 0 0 1-.13-.32v-5.38a2.996 2.996 0 0 0-.64-2.15 2.2 2.2 0 0 0-1.65-.63 2.093 2.093 0 0 0-1.55.66 2.917 2.917 0 0 0-.66 2.12v5.4a.437.437 0 0 1-.12.32.413.413 0 0 1-.32.13h-.92a.406.406 0 0 1-.31-.15ZM423.659 109.61a4.603 4.603 0 0 1-1.24-3.17v-1.66c0-1.174.447-2.304 1.25-3.16a5 5 0 0 1 6.53 0 4.619 4.619 0 0 1 1.25 3.16v1.66a4.594 4.594 0 0 1-1.24 3.17 5.099 5.099 0 0 1-6.55 0Zm5.19-1.06a3.363 3.363 0 0 0 .75-2.21c.027-.486.027-.974 0-1.46a3.363 3.363 0 0 0-.75-2.21 2.499 2.499 0 0 0-1.92-.77 2.51 2.51 0 0 0-1.92.77 3.313 3.313 0 0 0-.75 2.21v1.46c-.026.803.24 1.589.75 2.21a2.53 2.53 0 0 0 1.92.77 2.496 2.496 0 0 0 1.91-.77h.01ZM433.919 110.48a.423.423 0 0 1-.13-.32v-9.09a.438.438 0 0 1 .13-.32.399.399 0 0 1 .31-.14h.89a.48.48 0 0 1 .46.46v.85a2.887 2.887 0 0 1 2.69-1.31h.75c.12 0 .235.047.32.13a.441.441 0 0 1 .12.32v.78a.404.404 0 0 1-.12.31.444.444 0 0 1-.32.12h-1.18a2.055 2.055 0 0 0-1.631.603 2.062 2.062 0 0 0-.589 1.637v5.65a.421.421 0 0 1-.14.32.453.453 0 0 1-.151.1.456.456 0 0 1-.179.03h-.94a.394.394 0 0 1-.29-.13ZM442.649 114.31a3.571 3.571 0 0 1-1.36-1.21 2.833 2.833 0 0 1-.45-1.21.366.366 0 0 1 .026-.176.363.363 0 0 1 .104-.144.448.448 0 0 1 .32-.14h.92a.477.477 0 0 1 .29.09.662.662 0 0 1 .19.32c.157.413.419.779.76 1.06a2.49 2.49 0 0 0 1.64.45 3.102 3.102 0 0 0 2.1-.6c.253-.292.442-.632.557-1.001.116-.368.154-.755.113-1.139v-1.31a3.718 3.718 0 0 1-1.27 1 4.117 4.117 0 0 1-1.83.37 3.621 3.621 0 0 1-3-1.29 5.55 5.55 0 0 1-1.07-3.3v-1.06a5.495 5.495 0 0 1 1.08-3.29 3.591 3.591 0 0 1 3-1.32 3.745 3.745 0 0 1 3.16 1.48v-.83a.477.477 0 0 1 .12-.32.428.428 0 0 1 .32-.14h.88a.445.445 0 0 1 .33.14.426.426 0 0 1 .13.32v9.33c0 2.947-1.503 4.423-4.51 4.43a5.308 5.308 0 0 1-2.55-.51Zm4.48-6c.454-.593.71-1.314.73-2.06v-1.32a3.602 3.602 0 0 0-.72-2.06 2.366 2.366 0 0 0-2-.86 2.298 2.298 0 0 0-2 .84 4.01 4.01 0 0 0-.67 2.23v1.02c0 .79.233 1.562.67 2.22a2.272 2.272 0 0 0 2 .86 2.349 2.349 0 0 0 1.99-.9v.03ZM453.299 109.58a5.001 5.001 0 0 1-1.3-3.34v-1.28a5.07 5.07 0 0 1 1.32-3.31 4.643 4.643 0 0 1 6.43.13 5.397 5.397 0 0 1 1.17 3.66v.32a.437.437 0 0 1-.12.32.458.458 0 0 1-.32.13h-6.64v.17c.017.77.284 1.515.76 2.12a2.249 2.249 0 0 0 1.85.88 2.64 2.64 0 0 0 1.45-.36c.327-.188.612-.44.84-.74.072-.106.16-.201.26-.28a.75.75 0 0 1 .32 0h.94a.483.483 0 0 1 .29.1.33.33 0 0 1 .11.27 1.711 1.711 0 0 1-.53 1 4.256 4.256 0 0 1-1.48 1 5.333 5.333 0 0 1-2.18.43 4.209 4.209 0 0 1-3.17-1.22Zm5.8-4.7v-.06a3.202 3.202 0 0 0-.73-2.16 2.414 2.414 0 0 0-1.93-.84 2.364 2.364 0 0 0-1.91.84 3.246 3.246 0 0 0-.7 2.16v.06h5.27ZM463.259 110.48a.455.455 0 0 1-.12-.32v-9.1a.438.438 0 0 1 .12-.32.446.446 0 0 1 .32-.13h.9a.448.448 0 0 1 .32.13.441.441 0 0 1 .12.32v.84a3.932 3.932 0 0 1 1.32-1.09 4.138 4.138 0 0 1 1.89-.39 3.642 3.642 0 0 1 2.88 1.18 4.659 4.659 0 0 1 1 3.15v5.41a.437.437 0 0 1-.265.42.404.404 0 0 1-.175.03h-1a.419.419 0 0 1-.32-.13.455.455 0 0 1-.12-.32v-5.32a3.075 3.075 0 0 0-.66-2.11 2.439 2.439 0 0 0-1.92-.75 2.504 2.504 0 0 0-1.92.76 3.001 3.001 0 0 0-.71 2.1v5.32a.437.437 0 0 1-.12.32.413.413 0 0 1-.32.13h-1a.412.412 0 0 1-.22-.13Z"></path></svg>
