<?xml version="1.0" encoding="UTF-8"?>
<svg id="Layer_2"
  xmlns="http://www.w3.org/2000/svg" viewBox="0 0 353.02 308.44">
  <g id="Layer_1-2">
    <path d="m353.02,308.44H0V0h353.02v308.44Zm-348.83-4.19h344.65V4.19H4.19v300.06Z" fill="#fff"/>
    <path d="m140.37,150.88l.55,4.25-1.9-14.74c-.57-4.5-2.29-8.79-4.96-12.46-1.62-2.22-3.56-4.17-5.76-5.78-2.18-1.62-4.61-2.91-7.21-3.8l-17.64-6.11-2.31-5.16c8.04-6.53,13.74-19.17,13.74-29.91,0-15.24-9.27-26.78-24.83-26.78s-24.83,11.55-24.83,26.79c0,10.74,5.7,23.38,13.74,29.91l-2.31,5.16-17.64,6.11c-5.2,1.8-9.72,5.14-12.97,9.59-2.67,3.68-4.39,7.96-4.96,12.46l-1.72,13.36c-1.26,2.93-5.78,1.37,8.84,1.37h84.2c8.53,0,8.73,1.59,7.98-4.25Z" fill="#fff"/>
    <path d="m178.61,156.31H0V0h178.61v156.31Zm-174.42-4.19h170.23V4.19H4.19v147.94Z" fill="#fff"/>
    <path d="m353.02,156.31h-178.61V0h178.61v156.31Zm-174.42-4.19h170.23V4.19h-170.23v147.94Z" fill="#fff"/>
    <path d="m178.61,308.44H0v-156.31h178.61v156.31Zm-174.42-4.19h170.23v-147.94H4.19v147.94Z" fill="#fff"/>
    <path d="m353.02,308.44h-178.61v-156.31h178.61v156.31Zm-174.42-4.19h170.23v-147.94h-170.23v147.94Z" fill="#fff"/>
    <path d="m263.24,68.34v-1.64c0-1.64-.48-3.24-1.39-4.6l-.67-1.02h0c-.53-.84-.41-1.93.3-2.63l1.29-1.29h0c.6-.7.56-1.75-.09-2.4-.65-.65-1.69-.69-2.39-.09l-1.34,1.24c-1.87,1.89-2.16,4.83-.7,7.05l.67,1.02h0c.52.78.8,1.71.79,2.64v1.64c-9.85.62-18.66,6.34-23.23,15.08-4.57,8.74-4.24,19.24.87,27.68,5.11,8.44,14.26,13.59,24.13,13.59s19.02-5.16,24.13-13.59c5.11-8.44,5.44-18.94.87-27.68-4.57-8.74-13.38-14.46-23.23-15.08l.02.07Zm-11.09,22.32c-.5.51-1.26.66-1.92.39-.21-.1-.41-.23-.58-.39-.16-.17-.28-.37-.37-.58-.19-.43-.19-.91,0-1.34.09-.21.21-.41.37-.58.42-.41,1.01-.59,1.59-.48s1.06.52,1.28,1.06c.09.21.14.44.14.67,0,.23-.04.46-.14.67-.09.21-.21.41-.37.58h0Zm9.32,26.95c-3.57,0-6.78-2.15-8.14-5.44-1.36-3.29-.61-7.08,1.91-9.61,2.52-2.52,6.31-3.28,9.61-1.91,3.3,1.37,5.44,4.58,5.44,8.14,0,2.34-.93,4.58-2.58,6.23-1.65,1.65-3.9,2.58-6.23,2.58h0Zm12.2-27.54h0c-.09.21-.21.41-.37.59-.33.33-.78.52-1.25.52s-.92-.19-1.25-.52c-.16-.17-.28-.37-.37-.58-.19-.43-.19-.91,0-1.34.09-.21.21-.41.37-.58.42-.41,1.01-.59,1.59-.48s1.06.52,1.28,1.06c.09.21.14.44.14.67,0,.23-.04.46-.14.67h0Zm-12.2,20.49c-.47,0-.92-.18-1.25-.51-.33-.33-.51-.78-.51-1.25,0-.23.04-.46.14-.67.09-.21.21-.41.37-.58.51-.5,1.27-.65,1.92-.37.21.09.41.21.58.37.16.17.28.37.37.58.19.43.19.91,0,1.34-.09.21-.21.41-.37.58-.17.16-.37.28-.58.37-.21.09-.44.14-.67.14h0Z" fill="#fff"/>
    <path d="m211.43,154.22s13.41-21.76,48.29-21.09c34.88.67,47.62,21.09,47.62,21.09h-95.91Z" fill="#fff"/>
    <path d="m50.24,306.34s10.93-26.47,39.34-25.66c28.41.82,38.79,25.66,38.79,25.66H50.24Z" fill="#fff"/>
    <path d="m227.17,306.34s10.93-26.47,39.34-25.66c28.41.82,38.79,25.66,38.79,25.66h-78.13Z" fill="#fff"/>
    <path d="m89.3,203.35c-10.85,0-19.7,3.67-25.53,11.13s-8.64,18.36-8.64,32.59c0,.93.62,1.83,1.48,2.19,1.19.2,2.04,0,2.79-.7,2.1,12.99,13.78,24.74,28.31,24.74,7.22,0,13.61-2.18,18.45-6.36,3.31-2.86,5.86-6.63,7.55-11.15.83.07,1.68-.32,2.16-.99,3.94-5.51,7.6-10.33,7.6-19.65,0-6.46-2.96-11.12-6.93-12.84-2.43-5.45-5.49-10.14-9.79-13.49-4.5-3.51-10.28-5.46-17.46-5.46h0Zm-6.46,34.37l-.65,3.3c-.3,1.51,1.24,3.08,2.76,2.81,7.21-1.31,12.05-2.78,17.14-5.46.06,2.23.26,4.27.72,6.31.3,1.19.88,1.97,1.74,2.36.93.3,1.82-.03,2.58-.35.99-.44,2.01-1.02,2.76-1.44l.75,3.8c-1.2,6.31-3.86,11.05-7.6,14.28-3.9,3.37-9.04,5.19-15.32,5.19-13.26,0-24.01-12.66-23.87-24.44l1.61-1.61c.42,2.13,2.3,2.43,3.4,1.96l13.98-6.71Zm-6.33,10.01c-1.45.03-2.96.57-4.17,1.17-1.22.49-1.82,2.11-1.23,3.28.59,1.17,2.25,1.65,3.37.97.65-.33,1.44-.59,1.96-.65s.61-.03.84.2c.85.98,2.55,1.04,3.48.12s.88-2.61-.1-3.48c-1.19-1.19-2.78-1.62-4.15-1.61h0Zm18.25,1.61c-.97.86-1.02,2.56-.1,3.48s2.62.85,3.48-.12c.23-.23.32-.25.84-.2s1.31.32,1.96.65c1.12.68,2.78.2,3.37-.97.59-1.17-.02-2.78-1.23-3.28-.94-.47-2.14-1-3.6-1.14-1.74-.06-3.71.61-4.72,1.59h0Zm-3.97,7.13c-.61.06-1.19.36-1.59.82-.09.09-.95.5-1.89.5s-1.79-.4-1.89-.5c-.5-.52-1.24-.79-1.96-.72-.89.1-1.7.74-2,1.59-.29.85-.06,1.86.58,2.48,1.5,1.5,3.42,1.91,5.27,1.91s3.77-.42,5.27-1.91c.75-.66,1.02-1.82.63-2.74-.39-.92-1.42-1.53-2.42-1.43h0Z" fill="#fff"/>
    <path d="m268.16,274.51c-1.73,0-3.6-.12-5.55-.35-18.2-2.18-19.72-16.39-19.72-29.54,0-15.05,11.94-27.29,26.6-27.29,12.77,0,20.09,10.26,20.09,28.13,0,14.05-1.65,29.05-21.42,29.05h0Zm1.33-55.81c-13.91,0-25.22,11.62-25.22,25.91,0,16.02,3.09,26.32,18.51,28.17,1.9.23,3.71.35,5.38.35,18.49,0,20.04-13.67,20.04-27.67,0-9.99-2.43-26.75-18.7-26.75h0Z" fill="#fff"/>
    <path d="m243.23,245.88c-3.19.19-5.43-1.09-6.9-3.89-1.63-3.1-2.02-5.82,1.54-6.82-1.29-2.68-3.51-4.36-3.17-7.66.27-2.57,2.04-3.98,4.58-3.77.15-2.97-.63-6.63,1.05-9.29,1.68-2.66,4.12-2.58,6.99-2.68,1.3-3.56,12.47-10.93,13.95-5.29,3.27-1.81,5.32-3.95,9.33-4.15,3.24-.16,8.59-1.16,7.79,3.48,1.73.74,4.17,0,6.07.18,2.57.25,5.39,1.51,7.24,3.37,1.65,1.67,2.52,4.8,1.47,7.05,2.03,2.59,10.59,4.39,10.64,8.04.03,1.85-1.75,2.24-1.54,4.12.12,1.14,1.95,2.94,2.47,4.05.62,1.35,1.3,3.1,1.15,4.63-.21,2.06-1.12,2.39-3.22,2.49,1.28,2.33,2.32,5.29,1.61,8.21-.28,1.17-.97,1.45-1.39,2.33-.67,1.41-.66,3.1-1.73,4.46-.58.74-1.14,1.62-2.18,1.74-.94.1-.91-.87-1.61-.95-2.15-.24-4.35,1.34-5.12-1.8-1.78.33-4.4.56-6.2-.18-2.02-.84-2.65-3.56-4.6-4.01-2.09-.48-4.15,1.58-6.43.9-2.11-.63-3.27-2.57-5.46-2.96-2.4-.42-4.46.4-6.63-.69-1.98-.99-3.06-2.93-5.45-2.73-2.89.25-6.01,2.62-9.13,1.59-1.26-.42-2.91-2.83-3.31.18-.97.04-1.97.03-2.95.03" fill="#fff"/>
    <path d="m251.97,245.46h1.38v7.79h-1.38v-7.79Z" fill="#fff"/>
    <path d="m276.23,246.6h1.38v7.79h-1.38v-7.79Z" fill="#fff"/>
    <path d="m264.27,252.96h1.38v7.1h-1.38v-7.1Z" fill="#fff"/>
    <path d="m256.71,263.62h17.51v1.38h-17.51v-1.38Z" fill="#fff"/>
  </g>
</svg>