<?xml version="1.0" encoding="UTF-8"?><svg id="Layer_2" xmlns="http://www.w3.org/2000/svg" xmlns:xlink="http://www.w3.org/1999/xlink" viewBox="0 0 353.02 308.44"><defs><clipPath id="clippath"><rect x="1.72" y="2.51" width="348.83" height="304.25" fill="none"/></clipPath></defs><g id="Layer_1-2"><g clip-path="url(#clippath)" fill="none"><line x1="-155.88" y1="149.25" x2="218.62" y2="-171.66" fill="#00789f"/><rect x="-215.23" y="-12.25" width="493.19" height="2.09" transform="translate(14.86 17.73) rotate(-40.64)" fill="#00789f"/><line x1="-147.82" y1="157.31" x2="226.68" y2="-163.6" fill="#00789f"/><rect x="-207.16" y="-4.19" width="493.19" height="2.09" transform="translate(11.56 24.92) rotate(-40.64)" fill="#00789f"/><line x1="-139.76" y1="165.37" x2="234.74" y2="-155.54" fill="#00789f"/><rect x="-199.1" y="3.87" width="493.19" height="2.09" transform="translate(8.25 32.12) rotate(-40.64)" fill="#00789f"/><line x1="-131.7" y1="173.44" x2="242.81" y2="-147.48" fill="#00789f"/><rect x="-191.04" y="11.93" width="493.19" height="2.09" transform="translate(4.94 39.31) rotate(-40.64)" fill="#00789f"/><line x1="-123.63" y1="181.5" x2="250.87" y2="-139.41" fill="#00789f"/><rect x="-182.98" y="19.99" width="493.19" height="2.09" transform="translate(1.64 46.51) rotate(-40.64)" fill="#00789f"/><line x1="-115.57" y1="189.56" x2="258.93" y2="-131.35" fill="#00789f"/><rect x="-174.92" y="28.06" width="493.19" height="2.09" transform="translate(-1.67 53.7) rotate(-40.64)" fill="#00789f"/><line x1="-107.51" y1="197.62" x2="266.99" y2="-123.29" fill="#00789f"/><rect x="-166.85" y="36.12" width="493.19" height="2.09" transform="translate(-4.98 60.9) rotate(-40.64)" fill="#00789f"/><line x1="-99.45" y1="205.69" x2="275.06" y2="-115.23" fill="#00789f"/><rect x="-158.79" y="44.18" width="493.19" height="2.09" transform="translate(-8.28 68.09) rotate(-40.64)" fill="#00789f"/><line x1="-91.38" y1="213.75" x2="283.12" y2="-107.16" fill="#00789f"/><rect x="-150.73" y="52.25" width="493.19" height="2.09" transform="translate(-11.59 75.29) rotate(-40.64)" fill="#00789f"/><line x1="-83.32" y1="221.81" x2="291.18" y2="-99.1" fill="#00789f"/><rect x="-142.67" y="60.31" width="493.19" height="2.09" transform="translate(-14.89 82.48) rotate(-40.64)" fill="#00789f"/><line x1="-75.26" y1="229.87" x2="299.24" y2="-91.04" fill="#00789f"/><rect x="-134.6" y="68.37" width="493.19" height="2.09" transform="translate(-18.2 89.68) rotate(-40.64)" fill="#00789f"/><line x1="-67.2" y1="237.93" x2="307.31" y2="-82.98" fill="#00789f"/><rect x="-126.54" y="76.43" width="493.19" height="2.09" transform="translate(-21.51 96.87) rotate(-40.64)" fill="#00789f"/><line x1="-59.13" y1="246" x2="315.37" y2="-74.92" fill="#00789f"/><rect x="-118.48" y="84.49" width="493.19" height="2.09" transform="translate(-24.81 104.07) rotate(-40.64)" fill="#00789f"/><line x1="-51.07" y1="254.06" x2="323.43" y2="-66.85" fill="#00789f"/><rect x="-110.41" y="92.56" width="493.19" height="2.09" transform="translate(-28.12 111.26) rotate(-40.64)" fill="#00789f"/><line x1="-43.01" y1="262.12" x2="331.49" y2="-58.79" fill="#00789f"/><rect x="-102.35" y="100.62" width="493.19" height="2.09" transform="translate(-31.43 118.46) rotate(-40.64)" fill="#00789f"/><line x1="-34.95" y1="270.18" x2="339.55" y2="-50.73" fill="#00789f"/><rect x="-94.29" y="108.68" width="493.19" height="2.09" transform="translate(-34.73 125.65) rotate(-40.64)" fill="#00789f"/><line x1="-26.88" y1="278.25" x2="347.62" y2="-42.67" fill="#00789f"/><rect x="-86.23" y="116.74" width="493.19" height="2.09" transform="translate(-38.04 132.85) rotate(-40.64)" fill="#00789f"/><line x1="-18.82" y1="286.31" x2="355.68" y2="-34.6" fill="#00789f"/><rect x="-78.17" y="124.81" width="493.19" height="2.09" transform="translate(-41.35 140.04) rotate(-40.64)" fill="#00789f"/><line x1="-10.76" y1="294.37" x2="363.74" y2="-26.54" fill="#00789f"/><rect x="-70.1" y="132.87" width="493.19" height="2.09" transform="translate(-44.65 147.24) rotate(-40.64)" fill="#00789f"/><line x1="-2.7" y1="302.43" x2="371.8" y2="-18.48" fill="#00789f"/><rect x="-62.04" y="140.93" width="493.19" height="2.09" transform="translate(-47.96 154.43) rotate(-40.64)" fill="#00789f"/><line x1="5.36" y1="310.5" x2="379.87" y2="-10.42" fill="#00789f"/><rect x="-53.98" y="148.99" width="493.19" height="2.09" transform="translate(-51.27 161.63) rotate(-40.64)" fill="#00789f"/><line x1="13.43" y1="318.56" x2="387.93" y2="-2.35" fill="#00789f"/><rect x="-45.92" y="157.06" width="493.19" height="2.09" transform="translate(-54.57 168.82) rotate(-40.64)" fill="#00789f"/><line x1="21.49" y1="326.62" x2="395.99" y2="5.71" fill="#00789f"/><rect x="-37.85" y="165.12" width="493.19" height="2.09" transform="translate(-57.88 176.02) rotate(-40.64)" fill="#00789f"/><line x1="29.55" y1="334.68" x2="404.05" y2="13.77" fill="#00789f"/><rect x="-29.79" y="173.18" width="493.19" height="2.09" transform="translate(-61.19 183.21) rotate(-40.64)" fill="#00789f"/><line x1="37.61" y1="342.75" x2="412.12" y2="21.83" fill="#00789f"/><rect x="-21.73" y="181.24" width="493.19" height="2.09" transform="translate(-64.49 190.41) rotate(-40.64)" fill="#00789f"/><line x1="45.68" y1="350.81" x2="420.18" y2="29.9" fill="#00789f"/><rect x="-13.67" y="189.31" width="493.19" height="2.09" transform="translate(-67.8 197.61) rotate(-40.64)" fill="#00789f"/><line x1="53.74" y1="358.87" x2="428.24" y2="37.96" fill="#00789f"/><rect x="-5.6" y="197.37" width="493.19" height="2.09" transform="translate(-71.11 204.8) rotate(-40.64)" fill="#00789f"/><line x1="61.8" y1="366.93" x2="436.3" y2="46.02" fill="#00789f"/><rect x="2.46" y="205.43" width="493.19" height="2.09" transform="translate(-74.41 211.99) rotate(-40.64)" fill="#00789f"/><line x1="69.86" y1="375" x2="444.37" y2="54.08" fill="#00789f"/><rect x="10.52" y="213.49" width="493.19" height="2.09" transform="translate(-77.72 219.19) rotate(-40.64)" fill="#00789f"/><line x1="77.93" y1="383.06" x2="452.43" y2="62.15" fill="#00789f"/><rect x="18.58" y="221.56" width="493.19" height="2.09" transform="translate(-81.02 226.38) rotate(-40.64)" fill="#00789f"/><line x1="85.99" y1="391.12" x2="460.49" y2="70.21" fill="#00789f"/><rect x="26.64" y="229.62" width="493.19" height="2.09" transform="translate(-84.33 233.58) rotate(-40.64)" fill="#00789f"/><line x1="94.05" y1="399.18" x2="468.55" y2="78.27" fill="#00789f"/><rect x="34.71" y="237.68" width="493.19" height="2.09" transform="translate(-87.64 240.78) rotate(-40.64)" fill="#00789f"/><line x1="102.11" y1="407.24" x2="476.61" y2="86.33" fill="#00789f"/><rect x="42.77" y="245.74" width="493.19" height="2.09" transform="translate(-90.94 247.97) rotate(-40.64)" fill="#00789f"/><line x1="110.18" y1="415.31" x2="484.68" y2="94.39" fill="#00789f"/><rect x="50.83" y="253.81" width="493.19" height="2.09" transform="translate(-94.25 255.17) rotate(-40.64)" fill="#00789f"/><line x1="118.24" y1="423.37" x2="492.74" y2="102.46" fill="#00789f"/><rect x="58.89" y="261.87" width="493.19" height="2.09" transform="translate(-97.56 262.36) rotate(-40.64)" fill="#00789f"/><line x1="126.3" y1="431.43" x2="500.8" y2="110.52" fill="#00789f"/><rect x="66.96" y="269.93" width="493.19" height="2.09" transform="translate(-100.86 269.56) rotate(-40.64)" fill="#00789f"/><line x1="134.36" y1="439.49" x2="508.86" y2="118.58" fill="#00789f"/><rect x="75.02" y="277.99" width="493.19" height="2.09" transform="translate(-104.17 276.75) rotate(-40.64)" fill="#00789f"/><line x1="142.43" y1="447.56" x2="516.93" y2="126.64" fill="#00789f"/><rect x="83.08" y="286.06" width="493.19" height="2.09" transform="translate(-107.48 283.95) rotate(-40.64)" fill="#00789f"/><line x1="150.49" y1="455.62" x2="524.99" y2="134.71" fill="#00789f"/><rect x="91.14" y="294.12" width="493.19" height="2.09" transform="translate(-110.78 291.14) rotate(-40.64)" fill="#00789f"/><line x1="158.55" y1="463.68" x2="533.05" y2="142.77" fill="#00789f"/><rect x="99.21" y="302.18" width="493.19" height="2.09" transform="translate(-114.09 298.34) rotate(-40.64)" fill="#00789f"/></g><path d="m353.02,308.44H0V0h353.02v308.44Zm-348.83-4.19h344.65V4.19H4.19v300.06Z" fill="#00789f"/><path d="m297.48,296.13l1.31,10.22-4.56-35.42c-1.37-10.82-5.51-21.12-11.92-29.96-3.9-5.33-8.57-10.01-13.84-13.9-5.24-3.9-11.08-6.99-17.33-9.14l-42.41-14.68-5.54-12.4c19.32-15.7,33.02-46.08,33.02-71.89-.01-36.63-22.28-64.38-59.69-64.38s-59.68,27.76-59.68,64.39c0,25.81,13.7,56.2,33.02,71.89l-5.54,12.4-42.41,14.68c-12.49,4.34-23.37,12.36-31.17,23.04-6.42,8.83-10.55,19.14-11.92,29.96l-4.14,32.11c-3.04,7.05-13.9,3.3,21.25,3.3h202.39c20.49,0,20.99,3.83,19.18-10.22Z" fill="#00789f"/></g></svg>