<?xml version="1.0" encoding="UTF-8"?>
<svg id="Layer_2"
  xmlns="http://www.w3.org/2000/svg"
  xmlns:xlink="http://www.w3.org/1999/xlink" viewBox="156 173 353.02 308.44">
  <defs>
    <clipPath id="clippath">
      <rect x="158.28" y="174.97" width="348.83" height="304.25" fill="none"/>
    </clipPath>
  </defs>
  <g id="Layer_1-2">
    <g clip-path="url(#clippath)" fill="none">
      <line x1=".68" y1="321.71" x2="375.18" y2=".79" fill="#fff"/>
      <rect x="-58.66" y="160.2" width="493.19" height="2.09" transform="translate(-59.7 161.28) rotate(-40.64)" fill="#fff"/>
      <line x1="8.74" y1="329.77" x2="383.24" y2="8.86" fill="#fff"/>
      <rect x="-50.6" y="168.27" width="493.19" height="2.09" transform="translate(-63 168.48) rotate(-40.64)" fill="#fff"/>
      <line x1="16.81" y1="337.83" x2="391.31" y2="16.92" fill="#fff"/>
      <rect x="-42.54" y="176.33" width="493.19" height="2.09" transform="translate(-66.31 175.67) rotate(-40.64)" fill="#fff"/>
      <line x1="24.87" y1="345.89" x2="399.37" y2="24.98" fill="#fff"/>
      <rect x="-34.48" y="184.39" width="493.19" height="2.09" transform="translate(-69.62 182.87) rotate(-40.64)" fill="#fff"/>
      <line x1="32.93" y1="353.96" x2="407.43" y2="33.04" fill="#fff"/>
      <rect x="-26.41" y="192.45" width="493.19" height="2.09" transform="translate(-72.92 190.06) rotate(-40.64)" fill="#fff"/>
      <line x1="40.99" y1="362.02" x2="415.49" y2="41.11" fill="#fff"/>
      <rect x="-18.35" y="200.52" width="493.19" height="2.09" transform="translate(-76.23 197.26) rotate(-40.64)" fill="#fff"/>
      <line x1="49.06" y1="370.08" x2="423.56" y2="49.17" fill="#fff"/>
      <rect x="-10.29" y="208.58" width="493.19" height="2.09" transform="translate(-79.54 204.45) rotate(-40.64)" fill="#fff"/>
      <line x1="57.12" y1="378.14" x2="431.62" y2="57.23" fill="#fff"/>
      <rect x="-2.23" y="216.64" width="493.19" height="2.09" transform="translate(-82.84 211.65) rotate(-40.64)" fill="#fff"/>
      <line x1="65.18" y1="386.21" x2="439.68" y2="65.29" fill="#fff"/>
      <rect x="5.83" y="224.7" width="493.19" height="2.09" transform="translate(-86.15 218.84) rotate(-40.64)" fill="#fff"/>
      <line x1="73.24" y1="394.27" x2="447.74" y2="73.36" fill="#fff"/>
      <rect x="13.9" y="232.77" width="493.19" height="2.09" transform="translate(-89.46 226.04) rotate(-40.64)" fill="#fff"/>
      <line x1="81.3" y1="402.33" x2="455.81" y2="81.42" fill="#fff"/>
      <rect x="21.96" y="240.83" width="493.19" height="2.09" transform="translate(-92.76 233.23) rotate(-40.64)" fill="#fff"/>
      <line x1="89.37" y1="410.39" x2="463.87" y2="89.48" fill="#fff"/>
      <rect x="30.02" y="248.89" width="493.19" height="2.09" transform="translate(-96.07 240.43) rotate(-40.64)" fill="#fff"/>
      <line x1="97.43" y1="418.46" x2="471.93" y2="97.54" fill="#fff"/>
      <rect x="38.09" y="256.95" width="493.19" height="2.09" transform="translate(-99.38 247.62) rotate(-40.64)" fill="#fff"/>
      <line x1="105.49" y1="426.52" x2="479.99" y2="105.61" fill="#fff"/>
      <rect x="46.15" y="265.02" width="493.19" height="2.09" transform="translate(-102.68 254.82) rotate(-40.64)" fill="#fff"/>
      <line x1="113.55" y1="434.58" x2="488.06" y2="113.67" fill="#fff"/>
      <rect x="54.21" y="273.08" width="493.19" height="2.09" transform="translate(-105.99 262.01) rotate(-40.64)" fill="#fff"/>
      <line x1="121.62" y1="442.64" x2="496.12" y2="121.73" fill="#fff"/>
      <rect x="62.27" y="281.14" width="493.19" height="2.09" transform="translate(-109.3 269.21) rotate(-40.64)" fill="#fff"/>
      <line x1="129.68" y1="450.7" x2="504.18" y2="129.79" fill="#fff"/>
      <rect x="70.34" y="289.2" width="493.19" height="2.09" transform="translate(-112.6 276.4) rotate(-40.64)" fill="#fff"/>
      <line x1="137.74" y1="458.77" x2="512.24" y2="137.86" fill="#fff"/>
      <rect x="78.4" y="297.27" width="493.19" height="2.09" transform="translate(-115.91 283.6) rotate(-40.64)" fill="#fff"/>
      <line x1="145.8" y1="466.83" x2="520.3" y2="145.92" fill="#fff"/>
      <rect x="86.46" y="305.33" width="493.19" height="2.09" transform="translate(-119.21 290.79) rotate(-40.64)" fill="#fff"/>
      <line x1="153.87" y1="474.89" x2="528.37" y2="153.98" fill="#fff"/>
      <rect x="94.52" y="313.39" width="493.19" height="2.09" transform="translate(-122.52 297.99) rotate(-40.64)" fill="#fff"/>
      <line x1="161.93" y1="482.95" x2="536.43" y2="162.04" fill="#fff"/>
      <rect x="102.58" y="321.45" width="493.19" height="2.09" transform="translate(-125.83 305.18) rotate(-40.64)" fill="#fff"/>
      <line x1="169.99" y1="491.02" x2="544.49" y2="170.1" fill="#fff"/>
      <rect x="110.65" y="329.51" width="493.19" height="2.09" transform="translate(-129.13 312.38) rotate(-40.64)" fill="#fff"/>
      <line x1="178.05" y1="499.08" x2="552.55" y2="178.17" fill="#fff"/>
      <rect x="118.71" y="337.58" width="493.19" height="2.09" transform="translate(-132.44 319.57) rotate(-40.64)" fill="#fff"/>
      <line x1="186.12" y1="507.14" x2="560.62" y2="186.23" fill="#fff"/>
      <rect x="126.77" y="345.64" width="493.19" height="2.09" transform="translate(-135.75 326.77) rotate(-40.64)" fill="#fff"/>
      <line x1="194.18" y1="515.2" x2="568.68" y2="194.29" fill="#fff"/>
      <rect x="134.83" y="353.7" width="493.19" height="2.09" transform="translate(-139.05 333.96) rotate(-40.64)" fill="#fff"/>
      <line x1="202.24" y1="523.27" x2="576.74" y2="202.35" fill="#fff"/>
      <rect x="142.9" y="361.77" width="493.19" height="2.09" transform="translate(-142.36 341.16) rotate(-40.64)" fill="#fff"/>
      <line x1="210.3" y1="531.33" x2="584.8" y2="210.42" fill="#fff"/>
      <rect x="150.96" y="369.83" width="493.19" height="2.09" transform="translate(-145.67 348.36) rotate(-40.64)" fill="#fff"/>
      <line x1="218.36" y1="539.39" x2="592.87" y2="218.48" fill="#fff"/>
      <rect x="159.02" y="377.89" width="493.19" height="2.09" transform="translate(-148.97 355.55) rotate(-40.64)" fill="#fff"/>
      <line x1="226.43" y1="547.45" x2="600.93" y2="226.54" fill="#fff"/>
      <rect x="167.08" y="385.95" width="493.19" height="2.09" transform="translate(-152.28 362.75) rotate(-40.64)" fill="#fff"/>
      <line x1="234.49" y1="555.52" x2="608.99" y2="234.6" fill="#fff"/>
      <rect x="175.15" y="394.01" width="493.19" height="2.09" transform="translate(-155.59 369.94) rotate(-40.64)" fill="#fff"/>
      <line x1="242.55" y1="563.58" x2="617.05" y2="242.67" fill="#fff"/>
      <rect x="183.21" y="402.08" width="493.19" height="2.09" transform="translate(-158.89 377.14) rotate(-40.64)" fill="#fff"/>
      <line x1="250.61" y1="571.64" x2="625.12" y2="250.73" fill="#fff"/>
      <rect x="191.27" y="410.14" width="493.19" height="2.09" transform="translate(-162.2 384.33) rotate(-40.64)" fill="#fff"/>
      <line x1="258.68" y1="579.7" x2="633.18" y2="258.79" fill="#fff"/>
      <rect x="199.33" y="418.2" width="493.19" height="2.09" transform="translate(-165.51 391.53) rotate(-40.64)" fill="#fff"/>
      <line x1="266.74" y1="587.77" x2="641.24" y2="266.85" fill="#fff"/>
      <rect x="207.4" y="426.26" width="493.19" height="2.09" transform="translate(-168.81 398.72) rotate(-40.64)" fill="#fff"/>
      <line x1="274.8" y1="595.83" x2="649.3" y2="274.92" fill="#fff"/>
      <rect x="215.46" y="434.33" width="493.19" height="2.09" transform="translate(-172.12 405.92) rotate(-40.64)" fill="#fff"/>
      <line x1="282.86" y1="603.89" x2="657.37" y2="282.98" fill="#fff"/>
      <rect x="223.52" y="442.39" width="493.19" height="2.09" transform="translate(-175.43 413.11) rotate(-40.64)" fill="#fff"/>
      <line x1="290.93" y1="611.95" x2="665.43" y2="291.04" fill="#fff"/>
      <rect x="231.58" y="450.45" width="493.19" height="2.09" transform="translate(-178.73 420.31) rotate(-40.64)" fill="#fff"/>
      <line x1="298.99" y1="620.01" x2="673.49" y2="299.1" fill="#fff"/>
      <rect x="239.64" y="458.51" width="493.19" height="2.09" transform="translate(-182.04 427.5) rotate(-40.64)" fill="#fff"/>
      <line x1="307.05" y1="628.08" x2="681.55" y2="307.16" fill="#fff"/>
      <rect x="247.71" y="466.57" width="493.19" height="2.09" transform="translate(-185.34 434.7) rotate(-40.64)" fill="#fff"/>
      <line x1="315.11" y1="636.14" x2="689.61" y2="315.23" fill="#fff"/>
      <rect x="255.77" y="474.64" width="493.19" height="2.09" transform="translate(-188.65 441.89) rotate(-40.64)" fill="#fff"/>
    </g>
    <path d="m509.59,480.89H156.56V172.46h353.02v308.44Zm-348.83-4.19h344.65V176.65H160.75v300.06Z" fill="#fff"/>
    <path d="m454.04,468.58l1.31,10.22-4.56-35.42c-1.37-10.82-5.51-21.12-11.92-29.96-3.9-5.33-8.57-10.01-13.84-13.9-5.24-3.9-11.08-6.99-17.33-9.14l-42.41-14.68-5.54-12.4c19.32-15.7,33.02-46.08,33.02-71.89-.01-36.63-22.28-64.38-59.69-64.38s-59.68,27.76-59.68,64.39c0,25.81,13.7,56.2,33.02,71.89l-5.54,12.4-42.41,14.68c-12.49,4.34-23.37,12.36-31.17,23.04-6.42,8.83-10.55,19.14-11.92,29.96l-4.14,32.11c-3.04,7.05-13.9,3.3,21.25,3.3h202.39c20.49,0,20.99,3.83,19.18-10.22Z" fill="#fff"/>
  </g>
</svg>