<?xml version="1.0" encoding="UTF-8"?><svg id="Layer_2" xmlns="http://www.w3.org/2000/svg" viewBox="0 0 353.02 308.44"><g id="Layer_1-2"><path d="m353.02,308.44H0V0h353.02v308.44Zm-348.83-4.19h344.65V4.19H4.19v300.06Z" fill="#00789f"/><path d="m298.8,306.34l-4.56-35.42c-1.37-10.82-5.51-21.12-11.92-29.96-3.9-5.33-8.57-10.01-13.84-13.9-5.24-3.9-11.08-6.99-17.33-9.14l-42.41-14.68-5.54-12.4c19.32-15.7,33.02-46.08,33.02-71.89-.01-36.63-22.28-64.38-59.69-64.38s-59.68,27.76-59.68,64.39c0,25.81,13.7,56.2,33.02,71.89l-5.54,12.4-42.41,14.68c-12.49,4.34-23.37,12.36-31.17,23.04-6.42,8.83-10.55,19.14-11.92,29.96l-4.14,32.11c-3.04,7.05-13.9,3.3,21.25,3.3h202.39c20.49,0,20.99,3.83,19.18-10.22l1.31,10.22Zm-122.28-127.64c-22.62,0-40.95-20.88-40.95-46.64s18.33-46.64,40.95-46.64,40.95,20.88,40.95,46.64-18.33,46.64-40.95,46.64Z" fill="#00789f"/><circle cx="130.73" cy="116.3" r="1.43" fill="#00789f"/><circle cx="135.87" cy="109.15" r="1.43" fill="#00789f"/><circle cx="141" cy="102.01" r="1.43" fill="#00789f"/><circle cx="146.14" cy="94.86" r="1.43" fill="#00789f"/><circle cx="151.28" cy="87.71" r="1.43" fill="#00789f"/><circle cx="156.42" cy="80.56" r="1.43" fill="#00789f"/><circle cx="133.3" cy="124.16" r="1.43" fill="#00789f"/><circle cx="138.43" cy="117.02" r="1.43" fill="#00789f"/><circle cx="143.57" cy="109.87" r="1.43" fill="#00789f"/><circle cx="148.71" cy="102.72" r="1.43" fill="#00789f"/><circle cx="153.85" cy="95.57" r="1.43" fill="#00789f"/><circle cx="158.99" cy="88.43" r="1.43" fill="#00789f"/><circle cx="135.87" cy="132.02" r="1.43" fill="#00789f"/><circle cx="141" cy="124.88" r="1.43" fill="#00789f"/><circle cx="146.14" cy="117.73" r="1.43" fill="#00789f"/><circle cx="151.28" cy="110.58" r="1.43" fill="#00789f"/><circle cx="156.42" cy="103.44" r="1.43" fill="#00789f"/><circle cx="161.55" cy="96.29" r="1.43" fill="#00789f"/><circle cx="138.43" cy="139.89" r="1.43" fill="#00789f"/><circle cx="143.57" cy="132.74" r="1.43" fill="#00789f"/><circle cx="148.71" cy="125.59" r="1.43" fill="#00789f"/><circle cx="153.85" cy="118.45" r="1.43" fill="#00789f"/><circle cx="158.99" cy="111.3" r="1.43" fill="#00789f"/><circle cx="164.12" cy="104.15" r="1.43" fill="#00789f"/><circle cx="141" cy="147.75" r="1.43" fill="#00789f"/><circle cx="146.14" cy="140.6" r="1.43" fill="#00789f"/><circle cx="151.28" cy="133.45" r="1.43" fill="#00789f"/><circle cx="156.42" cy="126.31" r="1.43" fill="#00789f"/><circle cx="161.55" cy="119.16" r="1.43" fill="#00789f"/><circle cx="166.69" cy="112.01" r="1.43" fill="#00789f"/><circle cx="143.57" cy="155.61" r="1.43" fill="#00789f"/><circle cx="148.71" cy="148.46" r="1.43" fill="#00789f"/><circle cx="153.85" cy="141.32" r="1.43" fill="#00789f"/><circle cx="158.99" cy="134.17" r="1.43" fill="#00789f"/><circle cx="164.12" cy="127.02" r="1.43" fill="#00789f"/><circle cx="169.26" cy="119.87" r="1.43" fill="#00789f"/><circle cx="146.14" cy="163.47" r="1.43" fill="#00789f"/><circle cx="151.28" cy="156.33" r="1.43" fill="#00789f"/><circle cx="156.42" cy="149.18" r="1.43" fill="#00789f"/><circle cx="161.55" cy="142.03" r="1.43" fill="#00789f"/><circle cx="166.69" cy="134.88" r="1.43" fill="#00789f"/><circle cx="171.83" cy="127.74" r="1.43" fill="#00789f"/><circle cx="148.71" cy="171.33" r="1.43" fill="#00789f"/><circle cx="153.85" cy="164.19" r="1.43" fill="#00789f"/><circle cx="158.99" cy="157.04" r="1.43" fill="#00789f"/><circle cx="164.12" cy="149.89" r="1.43" fill="#00789f"/><circle cx="169.26" cy="142.75" r="1.43" fill="#00789f"/><circle cx="174.4" cy="135.6" r="1.43" fill="#00789f"/><circle cx="151.28" cy="179.2" r="1.43" fill="#00789f"/><circle cx="156.42" cy="172.05" r="1.43" fill="#00789f"/><circle cx="161.55" cy="164.9" r="1.43" fill="#00789f"/><circle cx="166.69" cy="157.76" r="1.43" fill="#00789f"/><circle cx="171.83" cy="150.61" r="1.43" fill="#00789f"/><circle cx="176.97" cy="143.46" r="1.43" fill="#00789f"/><circle cx="153.85" cy="187.06" r="1.43" fill="#00789f"/><circle cx="158.99" cy="179.91" r="1.43" fill="#00789f"/><circle cx="164.12" cy="172.76" r="1.43" fill="#00789f"/><circle cx="169.26" cy="165.62" r="1.43" fill="#00789f"/><circle cx="174.4" cy="158.47" r="1.43" fill="#00789f"/><circle cx="179.54" cy="151.32" r="1.43" fill="#00789f"/><circle cx="164.41" cy="83.07" r="1.43" fill="#00789f"/><circle cx="166.98" cy="90.93" r="1.43" fill="#00789f"/><circle cx="172.12" cy="83.78" r="1.43" fill="#00789f"/><circle cx="169.55" cy="98.79" r="1.43" fill="#00789f"/><circle cx="174.69" cy="91.64" r="1.43" fill="#00789f"/><circle cx="179.83" cy="84.5" r="1.43" fill="#00789f"/><circle cx="172.12" cy="106.65" r="1.43" fill="#00789f"/><circle cx="177.26" cy="99.5" r="1.43" fill="#00789f"/><circle cx="182.4" cy="92.36" r="1.43" fill="#00789f"/><circle cx="187.53" cy="85.21" r="1.43" fill="#00789f"/><circle cx="174.69" cy="114.51" r="1.43" fill="#00789f"/><circle cx="179.83" cy="107.37" r="1.43" fill="#00789f"/><circle cx="184.96" cy="100.22" r="1.43" fill="#00789f"/><circle cx="190.1" cy="93.07" r="1.43" fill="#00789f"/><circle cx="195.24" cy="85.93" r="1.43" fill="#00789f"/><circle cx="177.26" cy="122.38" r="1.43" fill="#00789f"/><circle cx="182.4" cy="115.23" r="1.43" fill="#00789f"/><circle cx="187.53" cy="108.08" r="1.43" fill="#00789f"/><circle cx="192.67" cy="100.93" r="1.43" fill="#00789f"/><circle cx="197.81" cy="93.79" r="1.43" fill="#00789f"/><circle cx="202.95" cy="86.64" r="1.43" fill="#00789f"/><circle cx="179.83" cy="130.24" r="1.43" fill="#00789f"/><circle cx="184.96" cy="123.09" r="1.43" fill="#00789f"/><circle cx="190.1" cy="115.94" r="1.43" fill="#00789f"/><circle cx="195.24" cy="108.8" r="1.43" fill="#00789f"/><circle cx="200.38" cy="101.65" r="1.43" fill="#00789f"/><circle cx="205.52" cy="94.5" r="1.43" fill="#00789f"/><circle cx="182.4" cy="138.1" r="1.43" fill="#00789f"/><circle cx="187.53" cy="130.95" r="1.43" fill="#00789f"/><circle cx="192.67" cy="123.81" r="1.43" fill="#00789f"/><circle cx="197.81" cy="116.66" r="1.43" fill="#00789f"/><circle cx="202.95" cy="109.51" r="1.43" fill="#00789f"/><circle cx="208.09" cy="102.36" r="1.43" fill="#00789f"/><circle cx="184.96" cy="145.96" r="1.43" fill="#00789f"/><circle cx="190.1" cy="138.81" r="1.43" fill="#00789f"/><circle cx="195.24" cy="131.67" r="1.43" fill="#00789f"/><circle cx="200.38" cy="124.52" r="1.43" fill="#00789f"/><circle cx="205.52" cy="117.37" r="1.43" fill="#00789f"/><circle cx="210.65" cy="110.23" r="1.43" fill="#00789f"/><circle cx="187.53" cy="153.82" r="1.43" fill="#00789f"/><circle cx="192.67" cy="146.68" r="1.43" fill="#00789f"/><circle cx="197.81" cy="139.53" r="1.43" fill="#00789f"/><circle cx="202.95" cy="132.38" r="1.43" fill="#00789f"/><circle cx="208.09" cy="125.24" r="1.43" fill="#00789f"/><circle cx="213.22" cy="118.09" r="1.43" fill="#00789f"/><circle cx="165.7" cy="181.34" r="1.43" fill="#00789f"/><circle cx="170.84" cy="174.19" r="1.43" fill="#00789f"/><circle cx="175.97" cy="167.05" r="1.43" fill="#00789f"/><circle cx="181.11" cy="159.9" r="1.43" fill="#00789f"/><circle cx="173.4" cy="182.06" r="1.43" fill="#00789f"/><circle cx="178.54" cy="174.91" r="1.43" fill="#00789f"/><circle cx="183.68" cy="167.76" r="1.43" fill="#00789f"/><circle cx="181.11" cy="182.77" r="1.43" fill="#00789f"/><circle cx="186.25" cy="175.62" r="1.43" fill="#00789f"/><circle cx="188.82" cy="183.48" r="1.43" fill="#00789f"/><circle cx="188.82" cy="164.54" r="1.43" fill="#00789f"/><circle cx="193.96" cy="157.4" r="1.43" fill="#00789f"/><circle cx="199.09" cy="150.25" r="1.43" fill="#00789f"/><circle cx="204.23" cy="143.1" r="1.43" fill="#00789f"/><circle cx="209.37" cy="135.96" r="1.43" fill="#00789f"/><circle cx="214.51" cy="128.81" r="1.43" fill="#00789f"/><circle cx="191.39" cy="172.41" r="1.43" fill="#00789f"/><circle cx="196.53" cy="165.26" r="1.43" fill="#00789f"/><circle cx="201.66" cy="158.11" r="1.43" fill="#00789f"/><circle cx="206.8" cy="150.96" r="1.43" fill="#00789f"/><circle cx="211.94" cy="143.82" r="1.43" fill="#00789f"/><circle cx="217.08" cy="136.67" r="1.43" fill="#00789f"/><circle cx="199.09" cy="173.12" r="1.43" fill="#00789f"/><circle cx="204.23" cy="165.97" r="1.43" fill="#00789f"/><circle cx="209.37" cy="158.83" r="1.43" fill="#00789f"/><circle cx="214.51" cy="151.68" r="1.43" fill="#00789f"/><circle cx="211.94" cy="166.69" r="1.43" fill="#00789f"/><circle cx="217.08" cy="159.54" r="1.43" fill="#00789f"/><circle cx="185.67" cy="80.92" r="1.43" fill="#00789f"/></g></svg>