<?xml version="1.0" encoding="UTF-8"?><svg id="Layer_2" xmlns="http://www.w3.org/2000/svg" viewBox="0 0 353.02 308.44"><g id="Layer_1-2"><path d="m353.02,308.44H0V0h353.02v308.44Zm-348.83-4.19h344.65V4.19H4.19v300.06Z" fill="#00789f"/><path d="m297.48,296.13l1.31,10.22-4.56-35.42c-1.37-10.82-5.51-21.12-11.92-29.96-3.9-5.33-8.57-10.01-13.84-13.9-5.24-3.9-11.08-6.99-17.33-9.14l-42.41-14.68-5.54-12.4c19.32-15.7,33.02-46.08,33.02-71.89-.01-36.63-22.28-64.38-59.69-64.38s-59.68,27.76-59.68,64.39c0,25.81,13.7,56.2,33.02,71.89l-5.54,12.4-42.41,14.68c-12.49,4.34-23.37,12.36-31.17,23.04-6.42,8.83-10.55,19.14-11.92,29.96l-4.14,32.11c-3.04,7.05-13.9,3.3,21.25,3.3h202.39c20.49,0,20.99,3.83,19.18-10.22Zm-108.86-163.74c-2-35.74-14.92-44.52,9.06-41.92,16.7,1.81,31.66,17.25,29.94,36.06-2.52,27.7-19.85,51.71-40.44,54.03-22.26,2.5,2.96-20.95,1.43-48.17Z" fill="#00789f"/><line x1="140.92" y1="126.52" x2="205.38" y2="69.64" fill="#00789f"/><rect x="130.16" y="97.03" width="85.97" height="2.09" transform="translate(-21.57 139.15) rotate(-41.44)" fill="#00789f"/><line x1="140.92" y1="137.13" x2="209.72" y2="76.43" fill="#00789f"/><rect x="129.44" y="105.73" width="91.75" height="2.09" transform="translate(-26.78 142.76) rotate(-41.44)" fill="#00789f"/><line x1="140.92" y1="147.75" x2="218.79" y2="79.03" fill="#00789f"/><rect x="127.92" y="112.34" width="103.86" height="2.09" transform="translate(-30.02 147.41) rotate(-41.44)" fill="#00789f"/><line x1="140.92" y1="158.36" x2="222.44" y2="86.42" fill="#00789f"/><rect x="127.32" y="121.34" width="108.72" height="2.09" transform="translate(-35.52 150.88) rotate(-41.44)" fill="#00789f"/><line x1="140.92" y1="168.97" x2="227.74" y2="92.36" fill="#00789f"/><rect x="126.43" y="129.62" width="115.79" height="2.09" transform="translate(-40.33 154.7) rotate(-41.44)" fill="#00789f"/><line x1="140.92" y1="179.58" x2="227.74" y2="102.97" fill="#00789f"/><rect x="126.43" y="140.23" width="115.79" height="2.09" transform="translate(-47.36 157.36) rotate(-41.44)" fill="#00789f"/><line x1="190.31" y1="146.61" x2="227.74" y2="113.58" fill="#00789f"/><rect x="184.07" y="129.05" width="49.92" height="2.09" transform="translate(-33.77 170.9) rotate(-41.44)" fill="#00789f"/><line x1="149.5" y1="182.62" x2="190.31" y2="146.61" fill="#00789f"/><rect x="142.69" y="163.57" width="54.43" height="2.09" transform="translate(-66.41 153.65) rotate(-41.44)" fill="#00789f"/><line x1="157.76" y1="185.95" x2="227.74" y2="124.19" fill="#00789f"/><rect x="146.08" y="154.02" width="93.33" height="2.09" transform="translate(-54.38 166.38) rotate(-41.44)" fill="#00789f"/><line x1="140.92" y1="211.42" x2="227.74" y2="134.8" fill="#00789f"/><rect x="126.43" y="172.07" width="115.79" height="2.09" transform="translate(-68.43 165.33) rotate(-41.44)" fill="#00789f"/><line x1="140.92" y1="222.03" x2="227.74" y2="145.42" fill="#00789f"/><rect x="126.43" y="182.68" width="115.79" height="2.09" transform="translate(-75.45 167.98) rotate(-41.44)" fill="#00789f"/><line x1="140.92" y1="232.64" x2="225.1" y2="158.36" fill="#00789f"/><rect x="126.87" y="194.45" width="112.27" height="2.09" transform="translate(-83.57 170.06) rotate(-41.44)" fill="#00789f"/></g></svg>