<?xml version="1.0" encoding="UTF-8"?><svg id="Layer_2" xmlns="http://www.w3.org/2000/svg" viewBox="0 0 353.02 308.43"><g id="Layer_1-2"><path d="m353.02,308.43H0V0h353.02v308.43Zm-348.83-4.19h344.65V4.19H4.19v300.06Z" fill="#00789f"/><path d="m159.47,190.86l-3.79,12.4-29.03,14.68c-8.55,4.34-16,12.36-21.34,23.04-4.39,8.83-7.22,19.14-8.16,29.96l-2.83,32.11c-2.08,7.05-9.51,3.3,14.55,3.3h138.55c14.03,0,14.37,3.83,13.13-10.22l.9,10.22-3.12-35.42c-.94-10.82-3.77-21.12-8.16-29.96-2.67-5.33-5.86-10.01-9.48-13.9-3.59-3.9-7.59-6.99-11.86-9.14l-29.03-14.68-3.79-12.4m8.66-11.76c7.31-15.63,20.45-26.93,20.45-47.05,0-28.59-13.63-55.37-47.55-57.03-33.91-1.66-45.88,28.59-49.21,33.58-3.33,4.99,0,11.81-1.66,15.13s-11.97,15.13-11.97,16.8c0,2.49,1.66,4.33,3.33,4.99,2.16.83,5.16,0,5.16,1.66s0,4.99-1.66,6.65c-1.66,1.66-1.66,3.33,1.66,4.99-1.66,1.66-3.33,4.99,0,6.65,3.33,4.99-3.33,8.31,3.33,13.47,6.82,4.99,20.45-1.66,20.45,6.65s7.69,17.17,2.53,27.14c-1.16,2.49-5.87,3.07-3.22,3.74,6.82,1.66,11.14,3.71,18.45,3.88,13.3.17,25.8-1.33,37.44-5.99,1.99-.83,4.19-1.51,3.69-3.5-2.33-8.16-3.87-25.94-1.22-31.76h0Z" fill="#00789f"/><path d="m180.38,55.91c-2.83,0-5.67-.09-8.42-.28l.28-4.18c2.62.18,5.35.27,8.14.27,22.49,0,36.84-5.82,36.84-9.83s-14.35-9.83-36.84-9.83c-15.54,0-29.62,2.88-35.04,7.18l-2.6-3.28c6.2-4.91,20.97-8.08,37.64-8.08,20.39,0,41.03,4.81,41.03,14.02s-20.64,14.02-41.03,14.02Z" fill="#00789f"/><polygon points="173.82 48.6 165.22 52.88 173.23 58.18 173.82 48.6" fill="#00789f"/></g></svg>