<?xml version="1.0" encoding="UTF-8"?><svg id="Layer_2" xmlns="http://www.w3.org/2000/svg" viewBox="0 0 353.02 308.71"><g id="Layer_1-2"><path d="m353.02,308.44H0V0h353.02v308.44Zm-348.83-4.19h344.65V4.19H4.19v300.06Z" fill="#00789f"/><path d="m140.37,150.88l.55,4.25-1.9-14.74c-.57-4.5-2.29-8.79-4.96-12.46-1.62-2.22-3.56-4.17-5.76-5.78-2.18-1.62-4.61-2.91-7.21-3.8l-17.64-6.11-2.31-5.16c8.04-6.53,13.74-19.17,13.74-29.91,0-15.24-9.27-26.78-24.83-26.78s-24.83,11.55-24.83,26.79c0,10.74,5.7,23.38,13.74,29.91l-2.31,5.16-17.64,6.11c-5.2,1.8-9.72,5.14-12.97,9.59-2.67,3.68-4.39,7.96-4.96,12.46l-1.72,13.36c-1.26,2.93-5.78,1.37,8.84,1.37h84.2c8.53,0,8.73,1.59,7.98-4.25Z" fill="#00789f"/><path d="m313.22,150.88l.55,4.25-1.9-14.74c-.57-4.5-2.29-8.79-4.96-12.46-1.62-2.22-3.56-4.17-5.76-5.78-2.18-1.62-4.61-2.91-7.21-3.8l-17.64-6.11-2.31-5.16c8.04-6.53,13.74-19.17,13.74-29.91,0-15.24-9.27-26.78-24.83-26.78s-24.83,11.55-24.83,26.79c0,10.74,5.7,23.38,13.74,29.91l-2.31,5.16-17.64,6.11c-5.2,1.8-9.72,5.14-12.97,9.59-2.67,3.68-4.39,7.96-4.96,12.46l-1.72,13.36c-1.26,2.93-5.78,1.37,8.84,1.37h84.2c8.53,0,8.73,1.59,7.98-4.25Z" fill="#00789f"/><path d="m313.22,304.05l.55,4.25-1.9-14.74c-.57-4.5-2.29-8.79-4.96-12.46-1.62-2.22-3.56-4.17-5.76-5.78-2.18-1.62-4.61-2.91-7.21-3.8l-17.64-6.11-2.31-5.16c8.04-6.53,13.74-19.17,13.74-29.91,0-15.24-9.27-26.78-24.83-26.78s-24.83,11.55-24.83,26.79c0,10.74,5.7,23.38,13.74,29.91l-2.31,5.16-17.64,6.11c-5.2,1.8-9.72,5.14-12.97,9.59-2.67,3.68-4.39,7.96-4.96,12.46l-1.72,13.36c-1.26,2.93-5.78,1.37,8.84,1.37h84.2c8.53,0,8.73,1.59,7.98-4.25Z" fill="#00789f"/><path d="m138.43,304.05l.55,4.25-1.9-14.74c-.57-4.5-2.29-8.79-4.96-12.46-1.62-2.22-3.56-4.17-5.76-5.78-2.18-1.62-4.61-2.91-7.21-3.8l-17.64-6.11-2.31-5.16c8.04-6.53,13.74-19.17,13.74-29.91,0-15.24-9.27-26.78-24.83-26.78s-24.83,11.55-24.83,26.79c0,10.74,5.7,23.38,13.74,29.91l-2.31,5.16-17.64,6.11c-5.2,1.8-9.72,5.14-12.97,9.59-2.67,3.68-4.39,7.96-4.96,12.46l-1.72,13.36c-1.26,2.93-5.78,1.37,8.84,1.37h84.2c8.53,0,8.73,1.59,7.98-4.25Z" fill="#00789f"/><path d="m178.61,156.31H0V0h178.61v156.31Zm-174.42-4.19h170.23V4.19H4.19v147.94Z" fill="#00789f"/><path d="m353.02,156.31h-178.61V0h178.61v156.31Zm-174.42-4.19h170.23V4.19h-170.23v147.94Z" fill="#00789f"/><path d="m178.61,308.44H0v-156.31h178.61v156.31Zm-174.42-4.19h170.23v-147.94H4.19v147.94Z" fill="#00789f"/><path d="m353.02,308.44h-178.61v-156.31h178.61v156.31Zm-174.42-4.19h170.23v-147.94h-170.23v147.94Z" fill="#00789f"/></g></svg>