<?xml version="1.0" encoding="UTF-8"?><svg id="Layer_2" xmlns="http://www.w3.org/2000/svg" viewBox="0 0 353.02 308.43"><g id="Layer_1-2"><path d="m353.02,308.43H0V0h353.02v308.43Zm-348.83-4.19h344.65V4.19H4.19v300.06Z" fill="#fff"/><path d="m140.37,150.88l.55,4.25-1.9-14.74c-.57-4.5-2.29-8.79-4.96-12.46-1.62-2.22-3.56-4.17-5.76-5.78-2.18-1.62-4.61-2.91-7.21-3.8l-17.64-6.11-2.31-5.16c8.04-6.53,13.74-19.17,13.74-29.91,0-15.24-9.27-26.78-24.83-26.78s-24.83,11.55-24.83,26.79c0,10.74,5.7,23.38,13.74,29.91l-2.31,5.16-17.64,6.11c-5.2,1.8-9.72,5.14-12.97,9.59-2.67,3.68-4.39,7.96-4.96,12.46l-1.72,13.36c-1.26,2.93-5.78,1.37,8.84,1.37h84.2c8.53,0,8.73,1.59,7.98-4.25Z" fill="#fff"/><path d="m311.48,150.88l-7.98,4.25-1.75-14.74c-.57-4.5-2.29-8.79-4.96-12.46-1.62-2.22-3.56-4.17-5.76-5.78-2.18-1.62-4.61-2.91-7.21-3.8l-9.26-6.11-2.31-5.16c.33-.27.05-2.21,1.72-4.12,1.53-1.75,6.47-.66,6.7-1.05,2.5-4.36,3.23-11.96,3.76-18.45,1.46-18.04-7.71-33.07-23.27-33.07s-24.83,11.55-24.83,26.79c0,2.18,1.57,18.04,3.89,23.48,1.09,2.54,3.99,2.31,7.45,2.31,2.31,0,1.03,3.01,2.39,4.12l-2.31,5.16-4.91,4.57c-5.89,5.36-13.05,7.02-15.68,11.12-2.45,3.83-4.39,7.96-4.96,12.46l-1.72,13.36c-1.26,2.93-15.81,1.37-1.18,1.37h84.2c8.53,0,0,0,7.98-4.25Z" fill="#fff"/><path d="m138.43,301.68l.55,4.25-1.9-14.74c-.57-4.5-2.29-8.79-4.96-12.46-1.62-2.22-3.56-4.17-5.76-5.78-2.18-1.62.1-1.5-7.21-3.8-7.31-2.3-15.13,1.4-20.07-1.89-4.94-3.29.12-9.37.12-9.37,8.04-6.53,13.74-19.17,13.74-29.91,0-4.95-.76-9.46-2.34-13.3-.54-1.32-1.18-2.55-1.92-3.7-.68-1.06-.05-1.82-.9-2.72-.68-.72-2.56-3.17-3.35-3.78-2.37-1.83-5.47-1.58-8.87-2.3-1.84-.39-3.76-2.37-5.83-2.37-.58,0-3.38-.21-4.97.02-2.1.31-4.73,2.51-5.63,2.83-2.36.84-7.1,2.07-8.86,3.33-.39.28,1.92.35,1.56.65-2.01,1.69-3.64,3.79-4.97,6.47-.5,1-2.05,1.41-2.43,2.5-.28.81-1.19,5.19-1.19,5.19-.65,2.57.04,4.29.04,7.18,0,10.74,5.7,23.38,13.74,29.91,0,0,4.25,5.73-.22,9.81-4.47,4.08-10.95-3.62-20.2,1.49q-9.25,5.11-12.5,9.55c-2.67,3.68-4.39,7.96-4.96,12.46l-1.72,13.36c-1.26,2.93-5.78,1.37,8.84,1.37h84.2c8.53,0,8.73,1.59,7.98-4.25Z" fill="#fff"/><path d="m316.03,301.68l.55,4.25-1.9-14.74c-.57-4.5-2.29-8.79-4.96-12.46-1.62-2.22-3.56-4.17-5.76-5.78-2.18-1.62-4.61-2.91-7.21-3.8l-17.64-6.11-2.31-5.16c8.04-6.53,14.43-14.5,13.74-29.91-1-22.2-12.06-31.02-23.23-31.02-9.62,0-25.91,10.51-26.43,31.03-.34,13.41,7.12,24.54,13.74,29.91l-2.31,5.16-17.64,6.11c-5.2,1.8-9.72,5.14-12.97,9.59-2.67,3.68-4.39,7.96-4.96,12.46l-1.72,13.36c-1.26,2.93-5.78,1.37,8.84,1.37h84.2c8.53,0,8.73,1.59,7.98-4.25Z" fill="#fff"/><path d="m178.61,156.31H0V0h178.61v156.31Zm-174.42-4.19h170.23V4.19H4.19v147.93Z" fill="#fff"/><path d="m353.02,156.31h-178.61V0h178.61v156.31Zm-174.42-4.19h170.23V4.19h-170.23v147.93Z" fill="#fff"/><path d="m178.61,308.43H0v-156.31h178.61v156.31Zm-174.42-4.19h170.23v-147.94H4.19v147.94Z" fill="#fff"/><path d="m353.02,308.43h-178.61v-156.31h178.61v156.31Zm-174.42-4.19h170.23v-147.94h-170.23v147.94Z" fill="#fff"/></g></svg>